<?xml version="1.0" encoding="utf-8"?>
<!-- Generator: Adobe Illustrator 23.1.1, SVG Export Plug-In . SVG Version: 6.00 Build 0)  -->
<svg version="1.1" id="Layer_1" xmlns="http://www.w3.org/2000/svg" xmlns:xlink="http://www.w3.org/1999/xlink" x="0px" y="0px"
	 viewBox="0 0 113.4 113.4" style="enable-background:new 0 0 113.4 113.4;" xml:space="preserve">
<style type="text/css">
	.st0{fill:#04B277;}
</style>
<path class="st0" d="M96.3,39.7c-0.1-0.1-0.3-0.2-0.5-0.4c-0.2-0.2-0.5-0.4-0.7-0.5c-0.2-0.1-0.4-0.3-0.7-0.4l-0.3-0.1
	c-0.2-0.1-0.4-0.2-0.5-0.2c-0.4-0.2-0.9-0.4-1.3-0.5c-1.3-0.4-2.6-0.7-3.9-0.9l-0.4,0l-0.4,0c-0.4,0-0.7,0-1.1,0.1
	c0,0-14.6,0.8-16.5,0.9c0.8-2.6,1.7-5.7,2.6-8.6c1.6-4.9,2-8.9,1.6-12.9c-0.6-5.5-3.8-10.6-8.6-13.5c-2.7-1.7-5.9-2.6-9-2.6
	c-0.3,0-0.5,0-0.8,0c-4.4,0.2-7.4,3.1-7.8,7.4c-0.3,2.8-0.6,5.3-0.9,7.7c-0.6,3.8-1.6,7-3.1,9.6c-0.8,1.5-1.8,2.8-2.9,4
	c-2.5,2.7-5.2,5.6-8.2,9.1l-1.3,1.5c-1.5,1.8-3.1,3.7-4.9,5.3c-0.2,0.2-0.5,0.5-0.8,0.7c-0.6,0.5-1.2,0.9-1.9,1.2
	c-0.3,0.2-1.1,0.4-1.9,0.6c-3.3,0.9-9.4,2.6-9.8,8.7c-0.1,1.3-0.2,2.6-0.2,3.9l0,0.8c0,1.1,0,2.2,0,3.2v38.6c0,2.6,2.1,4.7,4.7,4.7
	h5.7c0.1,0,0.2,0,0.2,0c2.5,0.4,5,0.8,7.3,1.2l1.5,0.3c5.8,1,11.2,1.9,16.8,2.5c1.9,0.2,3.8,0.5,5.6,0.7l0.6,0.1
	c4.2,0.5,8.5,1.1,12.8,1.5l0.3,0l0.2,0h0c0.9,0,1.7,0,2.5-0.1c1.1-0.1,2.2-0.1,3.8-0.3c8.5-1,14.6-6.9,15.6-15.1
	c0.2-1.4,0.2-2.9,0-4.6c0-0.4,0.1-0.7,0.3-0.9c3.9-4.4,5.3-10.6,3.6-16.2c1.3-1.9,2.9-4.8,3-8.4c0-1.4-0.2-2.9-0.6-4.4
	c3.2-2.4,5.4-6.1,6-10.2C102.6,48.1,100.4,42.8,96.3,39.7z M87.3,64.9c0.2,0.3,0.3,0.7,0.4,1c0.2,0.6,0.3,1.1,0.3,1.6
	c0,1.1-0.6,2.4-1.7,4l-0.1,0.2c-0.2,0.3-0.4,0.6-0.6,0.8l-1.9,2l1.1,2.6l0.1,0.3c1.7,3.5,0.7,7.7-2.3,10.1l-0.7,0.5l-0.3,0.5
	c-0.2,0.3-0.4,0.6-0.5,1l-0.2,0.7l0.1,1.4c0.2,1.7,0.4,3.5,0.2,5.2c-0.5,4.3-3.4,7-8,7.6c-1,0.1-2.1,0.2-3.2,0.3
	c-0.6,0-1.3,0.1-2,0.1c-0.1,0-0.1,0-0.2,0c-4-0.4-8.2-0.9-12.2-1.4l-0.8-0.1c-1.8-0.2-3.7-0.5-5.5-0.7c-5.4-0.6-10.8-1.5-16.5-2.5
	l-1.3-0.2c-2.5-0.4-5-0.9-7.7-1.3c-0.2,0-0.5-0.1-0.7-0.1l-2.5,0V63.8c0-1,0-2,0-3.1l0-0.7c0-1.1,0.1-2.2,0.2-3.3
	c0.6-0.5,2.7-1.1,3.6-1.3c1.1-0.3,2.2-0.6,3.2-1.1c1.4-0.7,2.7-1.5,3.9-2.5c0.4-0.4,0.8-0.8,1.2-1.1c1.9-1.8,3.7-3.8,5.3-5.8
	l1.3-1.5c3-3.5,5.7-6.4,8-8.9c1.6-1.7,3-3.6,4.2-5.7c2-3.6,3.3-7.6,4.1-12.5c0.4-2.5,0.7-5.1,1-7.9l0.1,0c1.5,0,3.1,0.5,4.4,1.3
	c2.5,1.6,4.3,4.3,4.6,7.3c0.3,2.8,0,5.6-1.2,9.3c-1,3.2-2,6.5-2.9,9.7l-1.2,4.3c-0.4,1.4-0.1,2.9,0.8,4.1c0.9,1.2,2.3,1.9,3.7,1.9
	l0.3,0c3.6-0.2,7.3-0.4,10.9-0.6c0,0,11.4-0.6,11.7-0.6c0.7,0.1,1.3,0.3,2,0.5c0.1,0,0.3,0.1,0.4,0.2l1,0.6c1.7,1.3,2.7,3.5,2.4,5.5
	c-0.3,2-1.4,3.8-3.1,4.9c-0.5,0.3-0.9,0.7-1.4,1.1l-0.4,0.3l-1.3,0.7l-0.6,1.8C86.2,62.1,86.4,63.5,87.3,64.9z"/>
</svg>
