<?xml version="1.0" encoding="utf-8"?>
<!-- Generator: Adobe Illustrator 21.0.0, SVG Export Plug-In . SVG Version: 6.00 Build 0)  -->
<svg version="1.1" id="Layer_1" xmlns="http://www.w3.org/2000/svg" xmlns:xlink="http://www.w3.org/1999/xlink" x="0px" y="0px"
	 viewBox="0 0 283.5 283.5" style="enable-background:new 0 0 283.5 283.5;" xml:space="preserve">
<style type="text/css">
	.st0{fill:#12406A;}
</style>
<g>
	<path class="st0" d="M212.8,67.3h7.4v7.4c0,4.1,3.3,7.4,7.4,7.4c4.1,0,7.4-3.3,7.4-7.4v-7.4h7.4c4.1,0,7.4-3.3,7.4-7.4
		c0-4.1-3.3-7.4-7.4-7.4h-7.4v-7.4c0-4.1-3.3-7.4-7.4-7.4c-4.1,0-7.4,3.3-7.4,7.4v7.4h-7.4c-4.1,0-7.4,3.3-7.4,7.4
		C205.5,64,208.7,67.3,212.8,67.3z"/>
	<path class="st0" d="M227.5,111.7c28.5,0,51.7-23.2,51.7-51.7S256,8.3,227.5,8.3c-27.6,0-50.3,21.8-51.7,49H89.6
		c-7.4,0-13.4,6-13.4,13.4V171c-3.7,1.8-7.3,3.9-10.7,6.3l-9.3,6.5l-2.7-3.9c-1.2-1.6-3.1-2.6-5.1-2.6c-1.3,0-2.5,0.4-3.5,1.1
		l-35.7,25c-2.7,2-3.4,5.8-1.5,8.6l37.5,53.5c1.2,1.7,3,2.6,5.1,2.6c1.3,0,2.5-0.4,3.5-1.1l35.7-25c2.8-2,3.4-5.8,1.5-8.6l-0.5-0.7
		c4.5-2.5,9.5-3.8,14.6-3.8c1.8,0,3.5,0.2,5.3,0.5l6.4,1.1c2.9,0.5,5.8,0.8,8.7,0.8c5.8,0,11.5-1,17-3l74.4-27.1
		c8.8-3.2,13.4-13,10.2-21.9l0-0.1c-1.4-3.8-4.2-7-7.7-8.9v-59.1C222,111.5,224.7,111.7,227.5,111.7z M227.5,21.7
		c21.1,0,38.3,17.2,38.3,38.3s-17.2,38.3-38.3,38.3S189.2,81.1,189.2,60S206.4,21.7,227.5,21.7z M168.5,69.6h8.2
		c0.6,3.3,1.6,6.4,2.8,9.5h-11V69.6z M139.4,69.6h16.7v22.5l-4-4c-1.2-1.2-2.7-1.8-4.4-1.8s-3.2,0.6-4.4,1.8l-4,4V69.6z M88.5,70.7
		c0-0.6,0.5-1.1,1.1-1.1H127v9.5H88.5V70.7z M51.7,253.4l-30.4-43.5L46.9,192l30.4,43.5L51.7,253.4z M215.7,185.9
		c-0.3,1.7-1.5,3-3.1,3.6l-74.4,27.1c-4.1,1.5-8.4,2.2-12.8,2.2c-2.2,0-4.4-0.2-6.6-0.6l-6.5-1.1c-2.5-0.4-5-0.7-7.5-0.7
		c-7.7,0-15.2,2.1-21.7,6l-20.1-28.7l9.3-6.5c5.7-4,11.9-7.1,18.5-9.1l0.7-0.2c6.3-1.9,12.9-2.9,19.6-2.9c3.8,0,7.7,0.3,11.4,1
		l36.5,6.4c1.3,0.2,2.4,0.9,3.1,1.9c0.4,0.6,0.7,1.3,0.8,2l0,0.1c0.1,0.6,0.1,1.2-0.1,1.9c-0.6,2-2.5,3.4-4.6,3.4
		c-0.3,0-0.6,0-0.9-0.1l-41.8-7.4l-2.1,12.1l41.7,7.4c1,0.2,2,0.3,3.1,0.3c0,0,0,0,0,0c7.2,0,13.4-4.3,16-10.9l35-12.8
		c0.5-0.2,1.1-0.3,1.6-0.3c2,0,3.8,1.3,4.5,3.2C215.8,184.3,215.9,185.1,215.7,185.9z M207,168.5c-0.6,0.1-1.2,0.3-1.7,0.5
		l-12.4,4.5h-24.2c-2.1-1.6-4.6-2.7-7.2-3.1l-36.5-6.4c-4.5-0.8-9.1-1.2-13.7-1.2c-7.7,0-15.3,1.1-22.7,3.3V91.4H127v15.6
		c0,2.5,1.5,4.8,3.8,5.7c0.8,0.3,1.6,0.5,2.4,0.5c1.6,0,3.2-0.6,4.3-1.8l10.2-10.2l10.2,10.2c1.2,1.1,2.7,1.8,4.3,1.8
		c0,0,0.2,0,0.2,0c0.8,0,1.6-0.2,2.3-0.5c2.3-1,3.8-3.2,3.8-5.7V91.4h18c5.3,6.9,12.4,12.5,20.5,16V168.5z"/>
</g>
</svg>
