<?xml version="1.0" encoding="utf-8"?>
<!-- Generator: Adobe Illustrator 21.0.0, SVG Export Plug-In . SVG Version: 6.00 Build 0)  -->
<svg version="1.1" id="Layer_1" xmlns="http://www.w3.org/2000/svg" xmlns:xlink="http://www.w3.org/1999/xlink" x="0px" y="0px"
	 viewBox="0 0 283.5 283.5" style="enable-background:new 0 0 283.5 283.5;" xml:space="preserve">
<style type="text/css">
	.st0{fill:#12406A;}
</style>
<g>
	<path class="st0" d="M238.1,163.7v-95c0.2-2.4-0.5-4.9-2.4-6.7l-49.3-49.3c-1.6-1.6-3.7-2.4-5.9-2.4c-0.3,0-0.6,0-0.8,0H82.1
		c-13.6,0-24.6,11-24.6,24.6v197.1c0,13.6,11,24.6,24.6,24.6h91.2c10.4,10.2,24.6,16.4,40.2,16.4c31.7,0,57.5-25.7,57.5-57.5
		C271,192.7,257.6,172.9,238.1,163.7z M188.9,38.4L199.5,49l10.6,10.6h-13.1c-4.5,0-8.2-3.7-8.2-8.2V38.4z M73.9,232.1V35
		c0-4.5,3.7-8.2,8.2-8.2h90.3v24.6c0,13.6,11,24.6,24.6,24.6h24.6v82.7c-2.7-0.4-5.4-0.6-8.2-0.6c-31.7,0-57.5,25.7-57.5,57.5
		c0,8.8,2,17.2,5.5,24.6H82.1C77.6,240.3,73.9,236.6,73.9,232.1z M213.5,256.7c-12,0-22.8-5.2-30.3-13.4c-0.1-0.1-0.1-0.1-0.2-0.2
		c-6.5-7.3-10.5-16.9-10.5-27.4c0-22.7,18.4-41.1,41.1-41.1s41.1,18.4,41.1,41.1S236.2,256.7,213.5,256.7z"/>
	<path class="st0" d="M229.9,207.5h-8.2v-8.2c0-4.5-3.7-8.2-8.2-8.2c-4.5,0-8.2,3.7-8.2,8.2v8.2h-8.2c-4.5,0-8.2,3.7-8.2,8.2
		c0,4.5,3.7,8.2,8.2,8.2h8.2v8.2c0,4.5,3.7,8.2,8.2,8.2c4.5,0,8.2-3.7,8.2-8.2v-8.2h8.2c4.5,0,8.2-3.7,8.2-8.2
		C238.1,211.1,234.5,207.5,229.9,207.5z"/>
</g>
<g>
	<path class="st0" d="M199.2,112.2H94.1c-4.4,0-8-3.6-8-8s3.6-8,8-8h105.2c4.4,0,8,3.6,8,8S203.6,112.2,199.2,112.2z"/>
</g>
<g>
	<path class="st0" d="M199.2,146.2H94.1c-4.4,0-8-3.6-8-8c0-4.4,3.6-8,8-8h105.2c4.4,0,8,3.6,8,8
		C207.2,142.6,203.6,146.2,199.2,146.2z"/>
</g>
<g>
	<path class="st0" d="M141.7,180.2H94.1c-4.4,0-8-3.6-8-8s3.6-8,8-8h47.7c4.4,0,8,3.6,8,8S146.1,180.2,141.7,180.2z"/>
</g>
</svg>
