<?xml version="1.0" encoding="utf-8"?>
<!-- Generator: Adobe Illustrator 23.1.1, SVG Export Plug-In . SVG Version: 6.00 Build 0)  -->
<svg version="1.1" id="Layer_1" xmlns="http://www.w3.org/2000/svg" xmlns:xlink="http://www.w3.org/1999/xlink" x="0px" y="0px"
	 viewBox="0 0 113.4 113.4" style="enable-background:new 0 0 113.4 113.4;" xml:space="preserve">
<style type="text/css">
	.st0{fill:#12406A;}
</style>
<g>
	<path class="st0" d="M57.6,80.4c-5.5,0-9.9,4.3-9.9,9.6v13.9c0,5.3,4.5,9.6,9.9,9.6c5.5,0,10-4.3,10-9.6V90
		C67.6,84.7,63.1,80.4,57.6,80.4z M62.5,103.8c0,2.5-2.1,4.5-4.8,4.5c-2.7,0-4.8-2-4.8-4.5V90c0-2.5,2.1-4.5,4.8-4.5
		c2.7,0,4.8,2,4.8,4.5V103.8z"/>
	<path class="st0" d="M65.6,42.1L65.6,42.1c-0.9,0-1.7,0.3-2.3,1c-0.6,0.6-0.9,1.4-0.9,2.2l0,22.7c0,0.8,0.3,1.6,0.9,2.2
		c0.6,0.6,1.4,0.9,2.2,1c0,0,0,0,0,0c0.8,0,1.6-0.3,2.2-0.9c0.6-0.6,0.9-1.4,1-2.3l0-22.7c0-0.8-0.3-1.6-0.9-2.2
		C67.2,42.5,66.4,42.1,65.6,42.1z"/>
	<path class="st0" d="M67.8,25.7c1.4-1.5,2.5-3.2,3.3-5.1h8.1c1.5,0,2.8-0.4,3.9-1.3c1.3-1,2-2.5,2-4c0-1.5-0.8-3-2-4
		c-1.1-0.8-2.5-1.3-3.9-1.3h-8.2c-2.2-5.5-7.5-9.2-13.4-9.2c-5.9,0-11.3,3.7-13.5,9.2h-7.9c-1.5,0-2.8,0.4-3.9,1.3c-1.3,1-2,2.5-2,4
		c0,1.5,0.8,3,2,4c1.1,0.8,2.5,1.3,3.9,1.3h7.8c0.7,1.9,1.9,3.7,3.4,5.2C33.2,29.3,23.1,41.3,23.1,55v38.8c0,2.5,1.3,4.8,3.7,6.6
		c2.2,1.6,4.9,2.5,7.7,2.5c0,0,0,0,0,0l8.2,0c1.7,0,3.1-1.4,3.1-3.1v-11c0-5.9,4.8-10.5,10.9-10.5h1.7c6.1,0,10.9,4.6,10.9,10.5v11
		c0,1.7,1.4,3.1,3.1,3.1l8.2,0c2.8,0,5.5-0.8,7.6-2.4c2.4-1.7,3.8-4.2,3.8-6.7V55C92.1,41.2,82,29.2,67.8,25.7z M72.6,15.6v-0.8
		v-1.9h7.2c0.4,0,0.8,0.1,1.1,0.4c0.3,0.3,0.4,0.7,0.4,1.1v0.4v0.8v0c0,0.4-0.1,0.8-0.4,1.1c-0.3,0.3-0.7,0.4-1.1,0.4h-7.2V15.6z
		 M42.9,14.8v0.8v1.5h-7.2c-0.4,0-0.8-0.1-1.1-0.4c-0.3-0.3-0.4-0.7-0.4-1.1v0v-0.8v-0.4c0-0.4,0.1-0.8,0.4-1.1
		c0.3-0.3,0.7-0.4,1.1-0.4h7.2V14.8z M57.6,6.5C57.6,6.5,57.6,6.5,57.6,6.5c5,0,8.9,3.9,8.9,8.9c0,5-3.9,8.9-8.9,8.9c0,0,0,0,0,0
		c-5,0-8.9-3.9-8.9-8.8C48.7,10.4,52.6,6.5,57.6,6.5z M85.8,93.7c0,0.3-0.2,0.9-1.2,1.6c-1,0.7-2.5,1.2-4,1.2l-5.1,0v-7.9
		c0-9.2-7.7-16.8-17.2-16.8h-1.7c-9.5,0-17.2,7.5-17.2,16.8v7.9l-5.1,0c0,0,0,0,0,0c-1.4,0-2.9-0.5-4-1.2c-1-0.7-1.2-1.4-1.2-1.5V55
		c0-13.2,11.9-23.9,26.5-24h3.1c14.7,0,26.7,10.8,26.7,24V93.7z"/>
	<path class="st0" d="M57.7,36.3l-0.1,0l0,0c-1.7,0-3.1,1.5-3.1,3.2l0,22.7c0,1.7,1.4,3.2,3.1,3.2c0,0,0,0,0,0
		c1.7,0,3.1-1.4,3.1-3.2l0-22.7C60.8,37.8,59.4,36.3,57.7,36.3z"/>
	<path class="st0" d="M49.8,42.1L49.8,42.1c-0.9,0-1.7,0.3-2.3,1c-0.6,0.6-0.9,1.4-0.9,2.2l0,22.7c0,1.7,1.4,3.2,3.1,3.2
		c0,0,0,0,0,0c0.8,0,1.6-0.3,2.2-0.9c0.6-0.6,0.9-1.4,1-2.3l0-22.7c0-0.8-0.3-1.6-0.9-2.2C51.4,42.5,50.6,42.1,49.8,42.1z"/>
</g>
</svg>
