<?xml version="1.0" encoding="utf-8"?>
<!-- Generator: Adobe Illustrator 23.1.1, SVG Export Plug-In . SVG Version: 6.00 Build 0)  -->
<svg version="1.1" id="Layer_1" xmlns="http://www.w3.org/2000/svg" xmlns:xlink="http://www.w3.org/1999/xlink" x="0px" y="0px"
	 viewBox="0 0 113.4 113.4" style="enable-background:new 0 0 113.4 113.4;" xml:space="preserve">
<style type="text/css">
	.st0{fill:#12406A;}
</style>
<path class="st0" d="M65.7,51.3L84.1,33c0.7-0.7,1.1-1.6,1.1-2.7c0-1-0.4-1.9-1.1-2.7c-0.7-0.7-1.7-1.1-2.7-1.1c0,0,0,0,0,0
	c-1,0-1.9,0.4-2.6,1.1L61.2,45.3L43.7,27.7C42.9,27,42,26.6,41,26.6c0,0,0,0,0,0c-1,0-1.9,0.4-2.6,1.1c-1.5,1.5-1.5,3.8,0,5.3
	l18.4,18.4L38.4,69.7c-0.7,0.7-1.1,1.6-1.1,2.7c0,1,0.4,1.9,1.1,2.7c0.7,0.7,1.6,1.1,2.6,1.1c0,0,0,0,0,0c1,0,1.9-0.4,2.6-1.1
	l17.6-17.6L78.8,75c0.7,0.7,1.7,1.1,2.7,1.1c0,0,0,0,0,0c1,0,1.9-0.4,2.6-1.1c1.5-1.5,1.5-3.8,0-5.3L65.7,51.3z"/>
</svg>
