<?xml version="1.0" encoding="utf-8"?>
<!-- Generator: Adobe Illustrator 23.1.1, SVG Export Plug-In . SVG Version: 6.00 Build 0)  -->
<svg version="1.1" id="Layer_1" xmlns="http://www.w3.org/2000/svg" xmlns:xlink="http://www.w3.org/1999/xlink" x="0px" y="0px"
	 viewBox="0 0 47.9 51.6" style="enable-background:new 0 0 47.9 51.6;" xml:space="preserve">
<style type="text/css">
	.st0{fill:#FFFFFF;}
</style>
<path class="st0" d="M28.4,24.8L46.8,6.4c0.7-0.7,1.1-1.6,1.1-2.7s-0.4-1.9-1.1-2.7C46.1,0.4,45.2,0,44.2,0c0,0,0,0,0,0
	c-1,0-1.9,0.4-2.6,1.1L23.9,18.7L6.4,1.1C5.7,0.4,4.7,0,3.7,0c0,0,0,0,0,0c-1,0-1.9,0.4-2.6,1.1c-1.5,1.5-1.5,3.8,0,5.3l18.4,18.4
	L1.1,43.1C0.4,43.8,0,44.8,0,45.8s0.4,1.9,1.1,2.7c0.7,0.7,1.6,1.1,2.6,1.1c0,0,0,0,0,0c1,0,1.9-0.4,2.6-1.1L24,30.9l17.6,17.6
	c0.7,0.7,1.7,1.1,2.6,1.1c0,0,0,0,0,0c1,0,1.9-0.4,2.6-1.1c1.5-1.5,1.5-3.8,0-5.3L28.4,24.8z"/>
</svg>
