<?xml version="1.0" encoding="utf-8"?>
<!-- Generator: Adobe Illustrator 23.1.1, SVG Export Plug-In . SVG Version: 6.00 Build 0)  -->
<svg version="1.1" id="Layer_1" xmlns="http://www.w3.org/2000/svg" xmlns:xlink="http://www.w3.org/1999/xlink" x="0px" y="0px"
	 viewBox="0 0 113.4 113.4" style="enable-background:new 0 0 113.4 113.4;" xml:space="preserve">
<style type="text/css">
	.st0{fill:#12406A;}
</style>
<g>
	<path class="st0" d="M22.8,53.1c-6.3,0-11.4,5.1-11.4,11.4c0,6.3,5.1,11.4,11.4,11.4c6.3,0,11.4-5.1,11.4-11.4
		C34.2,58.2,29.1,53.1,22.8,53.1z M28.5,64.5c0,3.1-2.6,5.7-5.7,5.7s-5.7-2.6-5.7-5.7c0-3.1,2.6-5.7,5.7-5.7S28.5,61.3,28.5,64.5z"
		/>
	<path class="st0" d="M90.6,53.1C90.6,53.1,90.6,53.1,90.6,53.1c-3.1,0-5.9,1.2-8.1,3.3c-2.2,2.2-3.3,5-3.3,8.1
		c0,6.3,5.1,11.4,11.4,11.4S102,70.8,102,64.5C102,58.2,96.9,53.1,90.6,53.1z M96.3,64.5c0,3.1-2.6,5.7-5.7,5.7s-5.7-2.6-5.7-5.7
		c0-3.1,2.6-5.7,5.7-5.7c1.5,0,2.9,0.6,4,1.6C95.7,61.5,96.3,63,96.3,64.5z"/>
	<path class="st0" d="M73.2,56.9H40.1c-1.7,0-3.1,1.4-3.1,3.1c0,1.7,1.4,3.1,3.1,3.1h33.1c1.7,0,3.1-1.4,3.1-3.1
		C76.3,58.3,74.9,56.9,73.2,56.9z"/>
	<path class="st0" d="M73.2,67H40.1c-1.7,0-3.1,1.4-3.1,3.1c0,1.7,1.4,3.1,3.1,3.1h33.1c1.7,0,3.1-1.4,3.1-3.1
		C76.3,68.3,74.9,67,73.2,67z"/>
	<path class="st0" d="M112.6,45.5V41c0-1.7-0.7-3.3-1.8-4.4c-1.2-1.2-2.8-1.8-4.4-1.8h-6.3v-5.6C99.9,16.9,90,7,77.8,7H35.6
		c-12.2,0-22.2,9.9-22.2,22.1v5.6H7.1c-3.5,0-6.3,2.8-6.3,6.3v4.5c0,1.7,1.4,3.1,3.1,3.1h1.8c-2.6,2.4-4.2,5.8-4.2,9.5v31.3
		c0,1.7,1.4,3.1,3.1,3.1H13v10.5c0,3.6,3,6.6,6.6,6.6h8.1c3.6,0,6.6-3,6.6-6.6V92.3h44.3v10.5c0,3.6,3,6.6,6.6,6.6h8.1
		c3.6,0,6.6-3,6.6-6.6V92.3h8.9c1.7,0,3.1-1.4,3.1-3.1V58c0-3.7-1.6-7.1-4.2-9.5h1.8C111.2,48.5,112.6,47.2,112.6,45.5z M106.4,42.4
		h-6.5v-1.7l6.4,0l0.1,0.1L106.4,42.4z M93.8,92.3l0,10.5c0,0.3-0.2,0.5-0.5,0.5h-8.1c-0.3,0-0.5-0.2-0.5-0.5V92.3H93.8z M28.2,92.3
		v10.5c0,0.3-0.2,0.5-0.5,0.5h-8.1c-0.3,0-0.5-0.2-0.5-0.5V92.3H28.2z M93.9,29.1v16H19.6V28.2c0.5-8.4,7.5-15.2,16-15.2h42.2
		C86.7,13.1,93.9,20.3,93.9,29.1z M7.6,58c0-3.7,3-6.8,6.8-6.8H99c3.7,0,6.8,3.1,6.8,6.8v19.1H7.6V58z M105.8,83.2v3.1H7.6v-3.1
		H105.8z M13.4,40.8v1.7H6.9V41c0-0.1,0.1-0.2,0.2-0.2H13.4z"/>
</g>
</svg>
