<?xml version="1.0" encoding="utf-8"?>
<!-- Generator: Adobe Illustrator 22.1.0, SVG Export Plug-In . SVG Version: 6.00 Build 0)  -->
<svg version="1.1" id="Capa_1" xmlns="http://www.w3.org/2000/svg" xmlns:xlink="http://www.w3.org/1999/xlink" x="0px" y="0px"
	 viewBox="0 0 482.1 482.1" style="enable-background:new 0 0 482.1 482.1;" xml:space="preserve">
<style type="text/css">
	.st0{fill:#12406A;}
</style>
<g>
	<path class="st0" d="M461.3,343.3c-6.3-5.7-14.3-8.3-22.4-7.3c-13.6,1.6-31.4,5.2-50.3,9.1c-25.5,5.3-51.8,10.7-72,12
		c-17.4,1.1-49.2-3.5-58.6-8.4c-6.3-3.3-9.9-7.4-11.9-11h39.1c16.1,0,29.3-13.1,29.3-29.3v-23c0-16.1-13.1-29.3-29.3-29.3H178
		c-4.6-0.1-59.3-1.2-97.1,31.1c-6.7,5.7-12,11.1-16.3,16c-4.5-5.6-11.4-9.2-19.2-9.2H10.5c-5.8,0-10.5,4.7-10.5,10.5V453
		c0,2.8,1.1,5.5,3.1,7.4c2,2,4.6,3.1,7.4,3.1l34.9,0c13.5,0,24.5-11,24.5-24.5v-8.1c10.5,0.7,34.1,3.2,84.3,12.7
		c59.2,11.1,96.1,14.9,125.2,14.9c20.9,0,37.7-1.9,55.8-4.5c22.4-3.2,50.5-11.1,75.4-18.1c11.5-3.3,22.4-6.3,32-8.7
		c25.9-6.5,29.8-22.9,29.8-32v-26.7C472.4,358.9,468.2,349.5,461.3,343.3z M49,438.9c0,1.9-1.6,3.5-3.5,3.5l-24.4,0V315.1h24.4
		c1.9,0,3.5,1.6,3.5,3.5L49,438.9L49,438.9z M451.4,395c0,2.2,0,8.1-13.9,11.7c-9.9,2.5-20.9,5.6-32.6,8.9
		c-24.2,6.8-51.6,14.6-72.6,17.6c-41.3,5.8-75.8,8.2-174.2-10.2c-50.6-9.5-75.8-12.4-88.1-13v-78c0.4-0.5,0.7-1,1-1.5
		c2.7-4.9,9.3-14.9,23.5-27.1c32.4-27.6,82.4-26.1,82.9-26.1c0.1,0,0.3,0,0.4,0h107.4c4.6,0,8.3,3.7,8.3,8.3v23
		c0,4.6-3.7,8.3-8.3,8.3H177.8c-5.8,0-10.5,4.7-10.5,10.5s4.7,10.5,10.5,10.5h46c2.2,8.6,8.1,21.1,24.4,29.6
		c14.9,7.8,51.9,11.8,69.6,10.7c21.7-1.4,48.7-6.9,74.9-12.3c18.4-3.8,35.8-7.4,48.5-8.8c2.7-0.3,4.8,1,6,2.1
		c2.5,2.3,4.1,5.8,4.1,9.3L451.4,395L451.4,395z"/>
	<path class="st0" d="M455.2,18.6H86.4c-14.8,0-26.9,12.1-26.9,26.9v172.9c0,14.8,12.1,26.9,26.9,26.9h368.8
		c14.8,0,26.9-12.1,26.9-26.9V45.6C482.1,30.7,470,18.6,455.2,18.6z M403.1,224.4H138.5c-2.8-31.3-27.1-56.5-58-60.6V97.3
		c30-4,53.8-27.8,57.7-57.7h265.2c4,30,27.7,53.7,57.7,57.7v66.5C430.2,167.9,405.8,193.1,403.1,224.4z M461.1,45.6v30.5
		c-18.4-3.6-32.9-18.1-36.4-36.5h30.5C458.4,39.6,461.1,42.3,461.1,45.6z M86.4,39.6h30.5C113.3,58,98.8,72.5,80.4,76.1V45.6
		C80.4,42.3,83.1,39.6,86.4,39.6z M80.4,218.4v-33.4c19.3,3.8,34.4,19.6,36.9,39.3h-31C83.1,224.4,80.4,221.7,80.4,218.4z
		 M455.2,224.4h-31c2.6-19.7,17.6-35.5,36.9-39.3v33.4C461.1,221.7,458.4,224.4,455.2,224.4z"/>
	<path class="st0" d="M271.3,56.9c-41.4,0-75.1,33.7-75.1,75.1c0,41.4,33.7,75.1,75.1,75.1c41.4,0,75.1-33.7,75.1-75.1
		C346.4,90.6,312.7,56.9,271.3,56.9z M271.3,186.1c-29.8,0-54.1-24.3-54.1-54.1c0-29.8,24.3-54.1,54.1-54.1
		c29.8,0,54.1,24.3,54.1,54.1C325.4,161.8,301.2,186.1,271.3,186.1z"/>
	<path class="st0" d="M150.4,99.7c-17.8,0-32.3,14.5-32.3,32.3c0,17.8,14.5,32.3,32.3,32.3c17.8,0,32.3-14.5,32.3-32.3
		C182.7,114.2,168.2,99.7,150.4,99.7z M150.4,143.3c-6.2,0-11.3-5.1-11.3-11.3c0-6.2,5.1-11.3,11.3-11.3c6.2,0,11.3,5.1,11.3,11.3
		C161.7,138.2,156.7,143.3,150.4,143.3z"/>
	<path class="st0" d="M392.2,99.7c-17.8,0-32.3,14.5-32.3,32.3c0,17.8,14.5,32.3,32.3,32.3c17.8,0,32.3-14.5,32.3-32.3
		C424.5,114.2,410,99.7,392.2,99.7z M392.2,143.3c-6.2,0-11.3-5.1-11.3-11.3c0-6.2,5.1-11.3,11.3-11.3s11.3,5.1,11.3,11.3
		C403.5,138.2,398.4,143.3,392.2,143.3z"/>
</g>
</svg>
