<?xml version="1.0" encoding="utf-8"?>
<!-- Generator: Adobe Illustrator 23.1.1, SVG Export Plug-In . SVG Version: 6.00 Build 0)  -->
<svg version="1.1" id="Layer_1" xmlns="http://www.w3.org/2000/svg" xmlns:xlink="http://www.w3.org/1999/xlink" x="0px" y="0px"
	 viewBox="0 0 113.4 113.4" style="enable-background:new 0 0 113.4 113.4;" xml:space="preserve">
<style type="text/css">
	.st0{fill:#12406A;}
</style>
<g>
	<path class="st0" d="M52,108.3h-38V5.8h64.4l18.3,17.8v18.6c0,1.5,1.2,2.8,2.8,2.8c1.5,0,2.8-1.2,2.8-2.8V22.4c0-0.8-0.3-1.4-0.9-2
		L81.5,1c-0.5-0.5-1.2-0.7-1.9-0.7H11.2c-1.5,0-2.8,1.2-2.8,2.8v108c0,1.5,1.2,2.8,2.8,2.8h40.7c1.6,0,2.9-1.2,2.9-2.8
		C54.7,109.6,53.5,108.3,52,108.3z"/>
	<path class="st0" d="M71.7,32.4H26c-1.7,0-3.1,1.4-3.1,3.1c0,1.7,1.5,3.1,3.1,3.1h45.7c1.7,0,3.1-1.4,3.1-3.1S73.4,32.4,71.7,32.4z
		"/>
	<path class="st0" d="M72,18.6H26.2c-1.7,0-3.1,1.4-3.1,3.2c0.1,1.7,1.5,3.1,3.1,3.1H72c1.7,0,3.1-1.4,3.1-3.1S73.7,18.6,72,18.6z"
		/>
	<path class="st0" d="M53,46.5H26.2c-1.7,0-3.1,1.4-3.1,3.2c0.1,1.7,1.5,3.1,3.1,3.1H53c1.7,0,3.1-1.4,3.1-3.1S54.7,46.5,53,46.5z"
		/>
	<path class="st0" d="M42.9,67.3c1.6,0,3-1.4,3.1-3.1c0-1.7-1.4-3.1-3.1-3.1H26.2c-1.7,0-3.1,1.4-3.1,3.1c0,1.7,1.4,3.1,3.1,3.1
		H42.9z"/>
	<path class="st0" d="M106.1,71.3c0-13.6-11.1-24.7-24.7-24.7S56.6,57.7,56.6,71.3c0,9.2,5,17.5,13.1,21.8l-3.6,17.5
		c-0.2,1.1,0.3,2.2,1.1,2.8c0.6,0.4,1.1,0.6,1.6,0.6c0.4,0,1-0.1,1.4-0.5l11.3-6.5l11.3,6.4c0.8,0.6,2,0.5,3-0.1
		c0.9-0.6,1.3-1.6,1.2-2.8l-3.1-17.9C101.4,88.3,106.1,80.1,106.1,71.3z M100.6,71.3c0,10.6-8.7,19.2-19.3,19.2s-19.3-8.7-19.3-19.3
		c0-10.6,8.7-19.2,19.3-19.2S100.6,60.7,100.6,71.3z M90.5,105.8l-7.5-4.4c-0.4-0.2-0.9-0.3-1.3-0.3c-0.5,0-0.9,0.1-1.4,0.3
		l-7.4,4.3l2.1-10.5c2,0.6,4.3,0.9,6.5,0.9c2.5,0,4.8-0.4,7.2-1.1L90.5,105.8z"/>
	<path class="st0" d="M83.3,55.8c-0.3-0.6-1.1-1.1-1.8-1.1c-0.8,0-1.4,0.4-1.8,1.1l-3.9,7.7l-8.6,1.2c-0.8,0.2-1.4,0.7-1.6,1.4
		c-0.3,0.7-0.1,1.5,0.5,2.1l6.2,6.1l-1.4,8.5c-0.2,0.8,0.2,1.6,0.8,2c0.4,0.3,0.9,0.3,1.2,0.3c0.3,0,0.6,0,1-0.2l7.7-4.1l7.6,4.1
		c0.3,0.1,0.6,0.2,0.9,0.2c0.4,0,0.8-0.1,1.2-0.4c0.6-0.5,1-1.3,0.8-2l-1.4-8.5l6.1-6c0.6-0.5,0.9-1.2,0.7-2.1
		c-0.2-0.9-1-1.3-1.6-1.5l-8.6-1.2L83.3,55.8z M86.3,73.9l0.9,5.6l-5-2.6c-0.6-0.3-1.1-0.2-1.4-0.1c-0.1,0-0.2,0-0.2,0h-0.1
		l-5.1,2.7l0.9-5.5c0.2-0.6-0.1-1.3-0.6-1.8l-4-3.8l5.6-0.9c0.9-0.2,1.3-0.7,1.5-1.1l2.4-5l2.4,5c0.3,0.6,0.8,1,1.6,1.1l5.6,0.8
		L87,72.3C86.6,72.7,86.3,73.2,86.3,73.9z"/>
</g>
</svg>
