<?xml version="1.0" encoding="utf-8"?>
<!-- Generator: Adobe Illustrator 23.1.1, SVG Export Plug-In . SVG Version: 6.00 Build 0)  -->
<svg version="1.1" id="Layer_1" xmlns="http://www.w3.org/2000/svg" xmlns:xlink="http://www.w3.org/1999/xlink" x="0px" y="0px"
	 viewBox="0 0 113.4 113.4" style="enable-background:new 0 0 113.4 113.4;" xml:space="preserve">
<style type="text/css">
	.st0{fill:#12406A;}
</style>
<path class="st0" d="M57.1,103.6c1.7,0,3.1,1.4,3.1,3.1s-1.4,3.1-3.1,3.1c-29.1,0-52.8-23.6-52.8-52.8S27.9,4.3,57.1,4.3
	c1.7,0,3.1,1.4,3.1,3.1s-1.4,3.1-3.1,3.1c-25.7,0-46.6,20.8-46.6,46.6S31.4,103.6,57.1,103.6z M57.1,57.1h24.8
	c1.7,0,3.1,1.4,3.1,3.1c0,1.7-1.4,3.1-3.1,3.1H54c-1.7,0-3.1-1.4-3.1-3.1V22.9c0-1.7,1.4-3.1,3.1-3.1s3.1,1.4,3.1,3.1V57.1z
	 M69.1,12.1c-1.7-0.4-2.6-2.1-2.2-3.8c0.4-1.7,2.1-2.6,3.8-2.2c1.7,0.4,2.6,2.1,2.2,3.8C72.5,11.6,70.8,12.5,69.1,12.1z M80.3,16.7
	c-1.5-0.9-2-2.8-1.1-4.2c0.9-1.5,2.8-2,4.2-1.1c1.5,0.9,2,2.8,1.1,4.2C83.7,17.1,81.8,17.6,80.3,16.7z M90,24.1
	c-1.2-1.2-1.2-3.2,0-4.4c1.2-1.2,3.2-1.2,4.4,0c1.2,1.2,1.2,3.2,0,4.4C93.2,25.4,91.2,25.4,90,24.1z M97.4,33.8
	c-0.9-1.5-0.3-3.4,1.1-4.2c1.5-0.9,3.4-0.3,4.2,1.1s0.3,3.4-1.1,4.2S98.2,35.3,97.4,33.8z M102,45c-0.4-1.7,0.5-3.4,2.2-3.8
	c1.7-0.4,3.4,0.5,3.8,2.2c0.4,1.7-0.5,3.4-2.2,3.8C104.2,47.6,102.5,46.7,102,45z M103.6,57.1c0-1.7,1.4-3.1,3.1-3.1
	s3.1,1.4,3.1,3.1c0,1.7-1.4,3.1-3.1,3.1S103.6,58.8,103.6,57.1z M102,69.1c0.4-1.7,2.1-2.6,3.8-2.2c1.7,0.4,2.6,2.1,2.2,3.8
	c-0.4,1.7-2.1,2.6-3.8,2.2C102.6,72.5,101.6,70.8,102,69.1z M97.4,80.3c0.9-1.5,2.8-2,4.2-1.1c1.5,0.9,2,2.8,1.1,4.2
	c-0.9,1.5-2.8,2-4.2,1.1C97,83.7,96.5,81.8,97.4,80.3z M90,90c1.2-1.2,3.2-1.2,4.4,0c1.2,1.2,1.2,3.2,0,4.4c-1.2,1.2-3.2,1.2-4.4,0
	C88.8,93.1,88.8,91.2,90,90z M80.3,97.4c1.5-0.9,3.4-0.3,4.2,1.1c0.9,1.5,0.3,3.4-1.1,4.2c-1.5,0.9-3.4,0.3-4.2-1.1
	C78.3,100.1,78.9,98.2,80.3,97.4z M69.1,102c1.7-0.4,3.4,0.5,3.8,2.2c0.4,1.7-0.5,3.4-2.2,3.8c-1.7,0.4-3.4-0.5-3.8-2.2
	C66.5,104.2,67.5,102.5,69.1,102z"/>
</svg>
