<?xml version="1.0" encoding="utf-8"?>
<!-- Generator: Adobe Illustrator 23.1.1, SVG Export Plug-In . SVG Version: 6.00 Build 0)  -->
<svg version="1.1" id="Layer_1" xmlns="http://www.w3.org/2000/svg" xmlns:xlink="http://www.w3.org/1999/xlink" x="0px" y="0px"
	 viewBox="0 0 113.4 113.4" style="enable-background:new 0 0 113.4 113.4;" xml:space="preserve">
<style type="text/css">
	.st0{fill:#12406A;}
</style>
<g>
	<path class="st0" d="M55.5,50.8c-2.7,0-4.9,2.2-4.9,4.9s2.2,4.9,4.9,4.9h27.1c2.7,0,4.9-2.2,4.9-4.9s-2.2-4.9-4.9-4.9H55.5z"/>
	<path class="st0" d="M82.6,64.3H55.5c-2.7,0-4.9,2.2-4.9,4.9c0,2.7,2.2,4.9,4.9,4.9h27.1c2.7,0,4.9-2.2,4.9-4.9
		C87.5,66.5,85.3,64.3,82.6,64.3z"/>
	<path class="st0" d="M82.6,77.9H55.5c-2.7,0-4.9,2.2-4.9,4.9s2.2,4.9,4.9,4.9h27.1c2.7,0,4.9-2.2,4.9-4.9S85.3,77.9,82.6,77.9z"/>
	<path class="st0" d="M103.8,45c0-1.4-0.5-2.7-1.4-3.6l-19-19c-0.9-0.9-2.2-1.4-3.5-1.4l-3.3,0c0,0-0.1,0-0.1,0L59,3.5
		C58.1,2.6,56.8,2,55.5,2L20.4,2C14.6,2,9.9,6.7,9.9,12.5v70.2c0,5.8,4.7,10.5,10.5,10.5h13.8c0.1,0,0.1,0.1,0.1,0.1v8.4
		c0,5.8,4.7,10.5,10.5,10.5h48.5c5.8,0,10.5-4.7,10.5-10.5L103.8,45z M34.5,29.1l-5.8,0c-2.4,0-4.7,1.6-5.1,4
		C23,36.3,25.4,39,28.4,39h5.8c0.1,0,0.1,0.1,0.1,0.1v3.5c0,0.1-0.1,0.1-0.1,0.1l-5.5,0c-2.4,0-4.7,1.6-5.1,4
		c-0.6,3.1,1.8,5.8,4.9,5.8h5.8c0.1,0,0.1,0.1,0.1,0.1v3.5c0,0.1-0.1,0.1-0.1,0.1l-5.5,0c-2.4,0-4.7,1.6-5.1,4
		c-0.6,3.1,1.8,5.8,4.9,5.8h5.8c0.1,0,0.1,0.1,0.1,0.1v17c0,0.1-0.1,0.1-0.1,0.1H20.4c-0.3,0-0.6-0.3-0.6-0.6V12.5
		c0-0.3,0.3-0.6,0.6-0.6h30.1c0.1,0,0.1,0.1,0.1,0.1v8.9c0,0.1-0.1,0.1-0.1,0.1h-5.8c-4.9,0-9,3.4-10.1,8
		C34.6,29.1,34.5,29.1,34.5,29.1z M93.9,101.6c0,0.3-0.3,0.6-0.6,0.6H44.8c-0.3,0-0.6-0.3-0.6-0.6V31.5c0-0.3,0.3-0.6,0.6-0.6h30.1
		c0.1,0,0.1,0.1,0.1,0.1v8.7c0,5.6,4.5,10.1,10.1,10.1h8.7c0.1,0,0.1,0.1,0.1,0.1V101.6z"/>
</g>
</svg>
