<?xml version="1.0" encoding="utf-8"?>
<!-- Generator: Adobe Illustrator 22.1.0, SVG Export Plug-In . SVG Version: 6.00 Build 0)  -->
<svg version="1.1" id="Capa_1" xmlns="http://www.w3.org/2000/svg" xmlns:xlink="http://www.w3.org/1999/xlink" x="0px" y="0px"
	 viewBox="0 0 578.7 578.7" style="enable-background:new 0 0 578.7 578.7;" xml:space="preserve">
<style type="text/css">
	.st0{fill:#12406A;}
</style>
<g>
	<g id="Layer_1_32_">
		<g>
			<path class="st0" d="M59.9,165.6L516.4,48.3l-3.8-17.9c-5.1-21.7-28-34.4-49.7-29.3L85.4,98c-21.7,5.1-34.4,28-29.3,49.7
				L59.9,165.6z"/>
			<path class="st0" d="M545.7,322.4c21.7-5.1,34.4-28,29.3-49.7l-37-145.4l-318.8,81.6h215.5c43.4,0,79.1,35.7,79.1,79v43.4
				L545.7,322.4z"/>
			<path class="st0" d="M474.3,288c0-23-17.9-40.8-40.8-40.8H43.3c-23,0-40.8,17.8-40.8,40.8v249.9c0,23,17.9,40.8,40.8,40.8h390.1
				c23,0,40.8-17.8,40.8-40.8V288z M47.2,317.3c0-10.2,8.9-19.1,19.1-19.1H283c10.2,0,19.1,8.9,19.1,19.1s-8.9,19.1-19.1,19.1H66.3
				C56.1,336.4,47.2,327.5,47.2,317.3z M293.3,541.7c-35.7,0-65-29.3-65-65s29.3-63.8,65-63.8s65,29.3,65,65
				C358.3,513.7,329,541.7,293.3,541.7z M433.5,478c0,35.7-29.3,65-65,65c-3.8,0-8.9,0-12.8-1.3c16.6-16.6,25.5-38.3,25.5-63.8
				s-10.2-47.2-25.5-63.8c3.8-1.3,7.6-1.3,12.8-1.3C405.5,412.9,433.5,442.3,433.5,478z"/>
		</g>
	</g>
</g>
</svg>
