<?xml version="1.0" encoding="utf-8"?>
<!-- Generator: Adobe Illustrator 23.1.1, SVG Export Plug-In . SVG Version: 6.00 Build 0)  -->
<svg version="1.1" id="Layer_1" xmlns="http://www.w3.org/2000/svg" xmlns:xlink="http://www.w3.org/1999/xlink" x="0px" y="0px"
	 viewBox="0 0 113.4 113.4" style="enable-background:new 0 0 113.4 113.4;" xml:space="preserve">
<style type="text/css">
	.st0{fill:#12406A;}
</style>
<g>
	<path class="st0" d="M104.9,17H83l-4.4-8.6c-2.3-4.7-7.1-7.6-12.3-7.5H47.1c-5.2-0.1-10,2.8-12.3,7.5L30.6,17h-22
		c-3,0-5.5,2.4-5.5,5.5s2.4,5.5,5.5,5.5h7.6v66.3c0,10.5,8.5,19.1,19.1,19.1h43c10.5,0,19.1-8.5,19.1-19.1V27.9h7.6
		c3,0,5.5-2.4,5.5-5.5s-2.4-5.5-5.5-5.5H104.9z M44.7,13.3c0.5-0.9,1.4-1.5,2.5-1.5h19.4c1,0,2,0.6,2.5,1.5l1.8,3.7H42.9L44.7,13.3z
		 M86.5,94.2c0,4.5-3.7,8.2-8.2,8.2H35.2c-4.5,0-8.2-3.7-8.2-8.2V27.9h59.5V94.2z"/>
	<path class="st0" d="M68.8,91.2c3,0,5.5-2.4,5.5-5.5v-40c0-3-2.4-5.5-5.5-5.5c-3,0-5.5,2.4-5.5,5.5v40
		C63.3,88.8,65.8,91.2,68.8,91.2z"/>
	<path class="st0" d="M44.8,91.2c3,0,5.5-2.4,5.5-5.5v-40c0-3-2.4-5.5-5.5-5.5c-3,0-5.5,2.4-5.5,5.5v40
		C39.3,88.8,41.8,91.2,44.8,91.2z"/>
</g>
</svg>
