<?xml version="1.0" encoding="utf-8"?>
<!-- Generator: Adobe Illustrator 23.1.1, SVG Export Plug-In . SVG Version: 6.00 Build 0)  -->
<svg version="1.1" id="Layer_1" xmlns="http://www.w3.org/2000/svg" xmlns:xlink="http://www.w3.org/1999/xlink" x="0px" y="0px"
	 viewBox="0 0 74.1 75.8" style="enable-background:new 0 0 74.1 75.8;" xml:space="preserve">
<style type="text/css">
	.st0{fill:#12406A;}
</style>
<g>
	<path class="st0" d="M67,44.6c-1.9,0-3.4,1.5-3.4,3.4v15.4c0,1.9-1.6,3.5-3.5,3.5H11.3c-1.9,0-3.5-1.6-3.5-3.5V18.2
		c0-1.9,1.6-3.5,3.5-3.5h15.4c1.9,0,3.4-1.5,3.4-3.4s-1.5-3.4-3.4-3.4H11.3c-5.7,0-10.4,4.7-10.4,10.4v45.3
		c0,5.7,4.7,10.4,10.4,10.4h48.8c5.7,0,10.4-4.7,10.4-10.4V48.1C70.5,46.2,68.9,44.6,67,44.6z"/>
	<path class="st0" d="M71.3,5.9l-2-2c-1.8-1.8-4.2-2.8-6.7-2.8c-2.5,0-4.9,1-6.7,2.8l-31,31c-0.4,0.4-0.7,0.9-0.9,1.5l-4.1,14.7
		c-0.3,1.2,0,2.5,0.9,3.4c0.7,0.6,1.5,1,2.4,1c0.3,0,0.6,0,0.9-0.1l14.7-4.1c0.6-0.2,1.1-0.5,1.5-0.9l31-31C75,15.6,75,9.6,71.3,5.9
		z M66.5,14.5l-0.6,0.6l-5.8-5.8l0.6-0.6c0.5-0.5,1.2-0.8,1.9-0.8c0.7,0,1.4,0.3,1.9,0.8l2,2C67.5,11.8,67.5,13.5,66.5,14.5z
		 M31.5,46.1l-3.3,0.9l0.9-3.3L31.5,46.1z M61,20L38,43l-5.8-5.8l23-23L61,20z"/>
</g>
</svg>
