<?xml version="1.0" encoding="utf-8"?>
<!-- Generator: Adobe Illustrator 23.1.1, SVG Export Plug-In . SVG Version: 6.00 Build 0)  -->
<svg version="1.1" id="Layer_1" xmlns="http://www.w3.org/2000/svg" xmlns:xlink="http://www.w3.org/1999/xlink" x="0px" y="0px"
	 viewBox="0 0 124.7 124.7" style="enable-background:new 0 0 124.7 124.7;" xml:space="preserve">
<style type="text/css">
	.st0{fill:#12406A;}
</style>
<path class="st0" d="M117.8,113.3H61.7c-27.8,0-50.5-22.6-50.5-50.5c0-14.3,6.1-27.9,16.7-37.5c10.8-9.7,24.7-14.2,39.2-12.7
	c22.3,2.3,41,20.1,44.4,42.3c1.2,8.1,0.6,16-1.9,23.6c-1.3,4-5.3,6.7-9.7,6.7c-5.7,0-10.3-4.6-10.3-10.3V40.4c0-3.1-2.5-5.6-5.6-5.6
	s-5.6,2.5-5.6,5.6v0.1C73.8,37,68,34.8,61.7,34.8c-15.5,0-28,12.6-28,28s12.6,28,28,28c7.2,0,13.7-2.8,18.7-7.3
	c3.3,7.6,10.9,12.9,19.7,12.9c9.3,0,17.5-5.8,20.3-14.4c3-9.3,3.8-19,2.3-28.8c-4.2-27.1-27-48.9-54.3-51.7
	C50.8-0.4,33.4,5.3,20.4,17C7.4,28.7,0,45.4,0,62.8c0,34,27.7,61.7,61.7,61.7h56.1c3.1,0,5.6-2.5,5.6-5.6
	C123.4,115.8,120.9,113.3,117.8,113.3z M61.7,79.6c-9.3,0-16.8-7.5-16.8-16.8S52.4,46,61.7,46s16.8,7.5,16.8,16.8S71,79.6,61.7,79.6
	z"/>
</svg>
