<?xml version="1.0" encoding="utf-8"?>
<!-- Generator: Adobe Illustrator 23.1.1, SVG Export Plug-In . SVG Version: 6.00 Build 0)  -->
<svg version="1.1" id="Layer_1" xmlns="http://www.w3.org/2000/svg" xmlns:xlink="http://www.w3.org/1999/xlink" x="0px" y="0px"
	 viewBox="0 0 113.4 113.4" style="enable-background:new 0 0 113.4 113.4;" xml:space="preserve">
<style type="text/css">
	.st0{fill:#12406A;}
</style>
<g>
	<path class="st0" d="M56.4,60.9c16.3,0,29.5-13.2,29.5-29.5c0-16.3-13.2-29.5-29.5-29.5S26.9,15.1,26.9,31.4
		C26.9,47.6,40.1,60.9,56.4,60.9z M56.4,11c11.2,0,20.4,9.1,20.4,20.4c0,11.2-9.1,20.4-20.4,20.4C45.2,51.8,36,42.6,36,31.4
		C36,20.2,45.2,11,56.4,11z"/>
	<path class="st0" d="M101.1,72.4c-6-7.3-15-11.4-24.7-11.4c-3.6,0-7.2,0.6-10.7,1.7c-3,1-6.2,1.5-9.4,1.5s-6.4-0.5-9.4-1.5
		c-3.5-1.1-7.2-1.7-10.8-1.7c-9.7,0-18.6,4.2-24.5,11.5C5.4,80,2,89.6,2,99.4c0,7.6,6.2,13.8,13.8,13.8H97c7.6,0,13.8-6.2,13.8-13.8
		C110.8,89.6,107.4,80,101.1,72.4z M68.5,71.3c2.6-0.9,5.3-1.3,8-1.3c2.3,0,4.6,0.4,6.8,1L68.3,86.7l-3.5-14.4
		C66.1,72.1,67.3,71.7,68.5,71.3z M55.4,73.3c0.3,0,0.6,0,0.9,0c0.4,0,0.9,0,1.3-0.1l4.6,18.9c0.1,0.3,0.2,0.5,0.3,0.7l-5.1,5.4
		l-6.5-6.9c0.1-0.2,0.1-0.3,0.2-0.5L55.4,73.3z M44,71.3c1.3,0.4,2.7,0.8,4.1,1.1L45,85L31.5,70.5c1.5-0.3,3-0.5,4.6-0.5
		C38.6,70.1,41.2,70.5,44,71.3z M11.1,99.4c0-7.7,2.7-15.2,7.5-21.2c1.5-1.8,3.2-3.2,5.1-4.5c0.1,0.2,0.2,0.3,0.4,0.5l27.9,29.9
		H15.8C13.1,104.1,11.1,102,11.1,99.4z M97,104.1H62.8l27.8-29.2c1.2,1,2.4,2.1,3.4,3.3c5,5.9,7.7,13.5,7.7,21.2
		C101.7,102,99.7,104.1,97,104.1z"/>
</g>
</svg>
