<?xml version="1.0" encoding="utf-8"?>
<!-- Generator: Adobe Illustrator 23.1.1, SVG Export Plug-In . SVG Version: 6.00 Build 0)  -->
<svg version="1.1" id="Layer_1" xmlns="http://www.w3.org/2000/svg" xmlns:xlink="http://www.w3.org/1999/xlink" x="0px" y="0px"
	 viewBox="0 0 38.3 79" style="enable-background:new 0 0 38.3 79;" xml:space="preserve">
<style type="text/css">
	.st0{fill-rule:evenodd;clip-rule:evenodd;fill:#12406A;}
</style>
<g>
	<g>
		<path class="st0" d="M8.1,39.8V78c0,0.5,0.4,1,1,1h14.2c0.5,0,1-0.4,1-1V39.2h10.3c0.5,0,0.9-0.4,1-0.9l1-11.7
			c0-0.6-0.4-1.1-1-1.1H24.3v-8.3c0-1.9,1.6-3.5,3.5-3.5h7.9c0.5,0,1-0.4,1-1V1c0-0.5-0.4-1-1-1H22.3C14.5,0,8.1,6.4,8.1,14.2v11.3
			H1c-0.5,0-1,0.4-1,1v11.7c0,0.5,0.4,1,1,1h7.1V39.8z"/>
	</g>
</g>
</svg>
