<?xml version="1.0" encoding="utf-8"?>
<!-- Generator: Adobe Illustrator 23.1.1, SVG Export Plug-In . SVG Version: 6.00 Build 0)  -->
<svg version="1.1" id="Layer_1" xmlns="http://www.w3.org/2000/svg" xmlns:xlink="http://www.w3.org/1999/xlink" x="0px" y="0px"
	 viewBox="0 0 31.6 84.9" style="enable-background:new 0 0 31.6 84.9;" xml:space="preserve">
<style type="text/css">
	.st0{fill:#12406A;}
</style>
<path class="st0" d="M30,56.8l-0.1-0.1l-1.7-6.8c0.5-0.3,1-0.7,1.4-1.1c1-1.1,1.4-2.6,1.1-4l-3.3-22c-0.4-2.4-2-4.2-4.1-4.9
	c1.9-1.9,3.1-4.6,3.1-7.4C26.2,4.7,21.5,0,15.8,0C10.1,0,5.4,4.7,5.4,10.4c0,2.8,1.1,5.4,3.1,7.4c-2.1,0.7-3.7,2.5-4.2,4.9L1,44.7
	c-0.3,1.5,0.1,2.9,1.1,4c0.4,0.5,0.9,0.9,1.4,1.2l-1.8,7.1l0,0.3c-0.1,1.3,0.2,2.4,0.9,3.1c0.8,0.9,1.9,1.4,3,1.4c0,0,0,0,0,0
	l2.1,0.1l1.1,17.5c0.2,3,2.8,5.4,5.9,5.4h2.1c3.1,0,5.7-2.4,5.9-5.4L24,61.9l2.1-0.1c1.1,0,2.1-0.5,3.1-1.4c0.7-0.9,1.1-2,0.9-3.2
	L30,56.8z M15.9,16.4c-3.3,0-6-2.7-6-6s2.7-6,6-6s6,2.7,6,6S19.2,16.4,15.9,16.4z M8.4,48.7c0.2-0.6,0-1.3-0.3-1.9
	c-0.4-0.6-1.1-0.9-1.8-0.9H6c-0.2,0-0.3-0.1-0.4-0.2c-0.1-0.2-0.2-0.3-0.2-0.6l3.3-21.9c0.1-0.8,0.7-1.3,1.3-1.4l11.4,0
	c0.8,0.1,1.3,0.7,1.4,1.4l3.3,22c0,0.1,0,0.2-0.2,0.5c-0.1,0.1-0.2,0.2-0.4,0.2h-0.2c-0.8,0-1.4,0.5-1.7,0.8l-0.1,0.1l-0.1,0.1
	c-0.3,0.6-0.3,1.2-0.3,1.5l2.3,8.9l-3.7,0.2c-1.1,0-2,0.8-2.2,2l-1.3,19.5c-0.1,0.7-0.7,1.4-1.4,1.4h-2.1c-0.8,0-1.3-0.6-1.4-1.4
	L12,59.6c0-1.2-0.9-2.1-2-2.1c0,0,0,0,0,0l-3.8-0.2L8.4,48.7z"/>
</svg>
