<?xml version="1.0" encoding="utf-8"?>
<!-- Generator: Adobe Illustrator 23.1.1, SVG Export Plug-In . SVG Version: 6.00 Build 0)  -->
<svg version="1.1" id="Layer_1" xmlns="http://www.w3.org/2000/svg" xmlns:xlink="http://www.w3.org/1999/xlink" x="0px" y="0px"
	 viewBox="0 0 113.4 113.4" style="enable-background:new 0 0 113.4 113.4;" xml:space="preserve">
<style type="text/css">
	.st0{fill-rule:evenodd;clip-rule:evenodd;fill:url(#SVGID_1_);}
	.st1{fill-rule:evenodd;clip-rule:evenodd;fill:#12406A;}
	.st2{fill-rule:evenodd;clip-rule:evenodd;fill:#F2912C;}
</style>
<g>
	<linearGradient id="SVGID_1_" gradientUnits="userSpaceOnUse" x1="56.6142" y1="51.4891" x2="56.6104" y2="54.6861">
		<stop  offset="0" style="stop-color:#183F5B"/>
		<stop  offset="1" style="stop-color:#183F5B;stop-opacity:0"/>
	</linearGradient>
	<rect x="0.1" y="51.5" class="st0" width="113" height="3.2"/>
	<g>
		<path class="st1" d="M16.4,44.8H8.2c-4,0-7.4,2.9-8.1,6.7h16.3V44.8z"/>
		<path class="st1" d="M96.8,44.8h8.2c4,0,7.4,2.9,8.1,6.7H96.8V44.8z"/>
		<path class="st2" d="M8.2,44.8c6.9,0,8.1,7,10.3,12c2.8,6.2,4.9,12.5,13.2,12.5h24.9h24.9c8.3,0,10.4-6.3,13.2-12.5
			c2.3-5,3.4-12,10.3-12H8.2L8.2,44.8z M105,44.8L105,44.8L105,44.8z M8.2,44.8"/>
	</g>
</g>
</svg>
