<?xml version="1.0" encoding="utf-8"?>
<!-- Generator: Adobe Illustrator 23.1.1, SVG Export Plug-In . SVG Version: 6.00 Build 0)  -->
<svg version="1.1" id="Layer_1" xmlns="http://www.w3.org/2000/svg" xmlns:xlink="http://www.w3.org/1999/xlink" x="0px" y="0px"
	 viewBox="0 0 113.4 113.4" style="enable-background:new 0 0 113.4 113.4;" xml:space="preserve">
<style type="text/css">
	.st0{fill:#12406A;}
</style>
<g>
	<path class="st0" d="M59,19.5c-10.6,0-19.1,8.5-19.1,19.1S48.5,57.7,59,57.7s19.1-8.5,19.1-19.1S69.6,19.5,59,19.5z M59,49.4
		c-5.9,0-10.9-4.9-10.9-10.9S53,27.6,59,27.6s10.9,4.9,10.9,10.9C69.9,44.6,65.1,49.4,59,49.4z"/>
	<path class="st0" d="M93.5,21.2L93.5,21.2c-9.6-19-33-26.7-51.9-17.1c-9.1,4.6-15.9,12.6-19.2,22.5c-3.2,9.8-2.5,20.5,2,29.4
		l26.3,51.5c1.5,3.1,4.7,5.1,8.2,5.1l0,0c3.6,0,6.6-1.9,8.2-5c0,0,21.5-41.7,26.3-51.6C99,44.9,99,32.2,93.5,21.2z M86.2,52.3
		c-4.9,9.8-26.3,51.6-26.3,51.6c-0.2,0.5-0.6,0.6-0.8,0.6l0,0c-0.2,0-0.6-0.1-0.8-0.6L31.7,52.3c-3.6-6.9-4.1-15.3-1.5-23.1
		s7.9-14.2,15.1-17.8c4.4-2.3,9-3.2,13.6-3.2c11.1,0,21.9,6.2,27.3,16.7C90.5,33.8,90.5,43.5,86.2,52.3z"/>
</g>
</svg>
