<?xml version="1.0" encoding="utf-8"?>
<!-- Generator: Adobe Illustrator 23.1.1, SVG Export Plug-In . SVG Version: 6.00 Build 0)  -->
<svg version="1.1" id="Layer_1" xmlns="http://www.w3.org/2000/svg" xmlns:xlink="http://www.w3.org/1999/xlink" x="0px" y="0px"
	 viewBox="0 0 113.4 113.4" style="enable-background:new 0 0 113.4 113.4;" xml:space="preserve">
<style type="text/css">
	.st0{fill-rule:evenodd;clip-rule:evenodd;fill:#60A9DD;}
</style>
<g>
	<path class="st0" d="M91.3,45.2l0.2,0v-9.9C91.5,18,79.4,3.6,63.2,0.6c-0.3-0.1-0.6-0.1-0.9-0.2c-0.2,0-0.4-0.1-0.6-0.1
		c-1.7-0.3-3.3-0.4-5-0.4c-0.5,0-1.1,0-1.6,0C36.8,0.9,22.4,16.3,22.4,35.2v9.9c-4.6,1.9-7.7,6.4-7.7,11.5V101
		c0,6.9,5.6,12.4,12.4,12.4h59.2c6.8,0,12.4-5.6,12.4-12.4V56.6C98.8,51.5,95.7,47.1,91.3,45.2z M31.9,35c0-12.4,8.8-23.2,20.6-25.2
		c1.4-0.2,2.9-0.4,4.3-0.4c1.6,0,3.2,0.2,4.7,0.5c1.7,0.3,3.3,0.8,4.9,1.4c9.2,3.8,15.6,13.2,15.6,23.7v9.1H31.9V35z M88.8,101
		c0,1.4-1.1,2.5-2.5,2.5H27.2c-1.4,0-2.5-1.1-2.5-2.5V56.6c0-1.3,1.1-2.4,2.4-2.4h59.2c1.4,0,2.5,1.1,2.5,2.5V101z"/>
	<path class="st0" d="M65.5,67.7c0-4.8-3.9-8.7-8.7-8.7c-4.8,0-8.7,3.9-8.7,8.6c0,3.1,1.6,5.9,4.3,7.5L50,89.6l-0.1,0.6l0.4,0.4
		l0.4,0.5h11.6l0.6,0l0.4-0.4l0.4-0.5l-2.5-15.1C63.8,73.6,65.5,70.8,65.5,67.7z"/>
</g>
</svg>
