<?xml version="1.0" encoding="utf-8"?>
<!-- Generator: Adobe Illustrator 23.1.1, SVG Export Plug-In . SVG Version: 6.00 Build 0)  -->
<svg version="1.1" id="Layer_1" xmlns="http://www.w3.org/2000/svg" xmlns:xlink="http://www.w3.org/1999/xlink" x="0px" y="0px"
	 viewBox="0 0 113.4 113.4" style="enable-background:new 0 0 113.4 113.4;" xml:space="preserve">
<style type="text/css">
	.st0{opacity:0.15;}
	.st1{fill:#010101;}
	.st2{fill:#F2912C;}
	.st3{fill:#FFFFFF;}
</style>
<g>
	<g class="st0">
		<path class="st1" d="M26.6,85.8c0.1,0,0.2,0.1,0.2,0.2c0,0.1,0,0.2,0,0.3v0.2c0,0.3,0,0.5,0.1,0.6c0.1,0.2,0.2,0.3,0.3,0.4
			c0.2,0.1,0.3,0.2,0.6,0.2c0.2,0,0.5,0.1,0.9,0.1h2.5c0.1,0,0.1,0,0.2,0c0.1,0,0.1,0,0.2,0c0.1,0,0.1-0.1,0.1-0.1
			c0,0,0.1-0.1,0.1-0.2v-6c0-0.1,0-0.1,0.1-0.2c0,0,0.1-0.1,0.1-0.1h0.9c0.1,0,0.1,0,0.1,0.1c0,0,0.1,0.1,0.1,0.2v6.2
			c0,0,0.1,0.1,0.1,0.1c0,0,0.1,0,0.2,0.1c0.1,0,0.1,0,0.2,0c0.1,0,0.1,0,0.2,0H34V89h-0.1c-0.2,0-0.4,0-0.7-0.1
			c-0.3,0-0.5-0.1-0.7-0.2C32.3,88.9,32,89,31.8,89C31.5,89,31.3,89,31,89h-2.6c-0.6,0-1,0-1.4-0.2c-0.4-0.1-0.7-0.2-0.9-0.4
			c-0.2-0.2-0.4-0.4-0.5-0.7c-0.1-0.3-0.1-0.6-0.1-1c0,0,0-0.1,0-0.2c0-0.1,0-0.1,0-0.2c0-0.1,0-0.2,0-0.2c0-0.1,0-0.1,0-0.2
			c0-0.1,0-0.1,0.1-0.2c0,0,0.1,0,0.1,0H26.6z M28.1,84.9c0-0.1,0.1-0.1,0.2-0.1h0.2c0-0.1-0.1-0.2-0.1-0.3c0-0.1,0-0.2,0-0.3
			c0-0.3,0.1-0.6,0.3-0.8c0.2-0.2,0.5-0.3,0.9-0.3c0.1,0,0.1,0,0.2,0c0.1,0,0.2,0,0.3,0.1c0.1,0,0.1,0.1,0.1,0.2v0.4
			c0,0.1,0,0.1-0.1,0.1c0,0-0.1,0-0.2,0c-0.1,0-0.2,0-0.2,0c-0.2,0-0.3,0-0.3,0.1c-0.1,0.1-0.1,0.2-0.1,0.3c0,0.1,0,0.2,0.1,0.3
			c0,0.1,0.1,0.1,0.1,0.1H30c0.1,0,0.2,0,0.2,0.1v0.4c0,0.1-0.1,0.1-0.2,0.1h-1.8c-0.1,0-0.2,0-0.2-0.1V84.9z"/>
		<path class="st1" d="M33.6,87.8c0,0,0-0.1,0.1-0.1c0.1,0,0.1,0,0.2,0h0.3c0.1,0,0.3,0,0.4-0.1c0.1,0,0.2-0.1,0.2-0.3v-2.1
			c0-0.1,0-0.1,0.1-0.2c0,0,0.1-0.1,0.1-0.1h0.9c0.1,0,0.1,0,0.1,0.1c0,0,0.1,0.1,0.1,0.2v2.3c0,0,0.1,0.1,0.1,0.1
			c0.1,0,0.1,0,0.2,0.1c0.1,0,0.1,0,0.2,0c0.1,0,0.1,0,0.2,0h0.1c0.1,0,0.1,0,0.2,0c0.1,0,0.1,0,0.2,0c0.1,0,0.1-0.1,0.1-0.1
			c0,0,0.1-0.1,0.1-0.2v-2.5c0-0.1,0-0.1,0.1-0.1c0,0,0.1-0.1,0.1-0.1h0.9c0.1,0,0.1,0,0.1,0.1c0,0,0.1,0.1,0.1,0.1v2.7
			c0,0.1,0.1,0.1,0.2,0.2c0.1,0,0.3,0,0.4,0h0.1c0.1,0,0.1,0,0.2,0c0.1,0,0.1,0,0.2,0c0.1,0,0.1-0.1,0.2-0.1c0,0,0.1-0.1,0.1-0.2
			v-2.9c0-0.1,0-0.1,0.1-0.2c0,0,0.1-0.1,0.1-0.1h0.9c0.1,0,0.1,0,0.1,0.1c0,0,0.1,0.1,0.1,0.2v3c0,0,0.1,0.1,0.1,0.1
			c0.1,0,0.1,0,0.2,0.1c0.1,0,0.1,0,0.2,0c0.1,0,0.1,0,0.2,0h0.3V89h-0.1c-0.2,0-0.4,0-0.7-0.1c-0.3,0-0.5-0.1-0.7-0.3
			c-0.2,0.2-0.4,0.3-0.6,0.3C40,89,39.8,89,39.6,89h-0.1c-0.2,0-0.5,0-0.7-0.1c-0.2,0-0.4-0.1-0.6-0.3c-0.2,0.1-0.3,0.2-0.6,0.3
			C37.4,89,37.2,89,36.9,89h-0.1c-0.2,0-0.4,0-0.6-0.1c-0.2,0-0.4-0.1-0.6-0.3c-0.1,0.1-0.2,0.1-0.3,0.2c-0.1,0-0.2,0.1-0.4,0.1
			c-0.1,0-0.2,0-0.4,0.1c-0.1,0-0.2,0-0.3,0h-0.3c-0.1,0-0.2,0-0.2,0c-0.1,0-0.1-0.1-0.1-0.1V87.8z"/>
		<path class="st1" d="M42,87.8c0,0,0-0.1,0.1-0.1c0.1,0,0.2,0,0.2,0h1.2c-0.1-0.1-0.2-0.3-0.3-0.5c-0.1-0.2-0.1-0.5-0.1-0.8v-0.2
			c0-0.4,0.1-0.7,0.2-1c0.1-0.3,0.3-0.5,0.5-0.7c0.2-0.2,0.5-0.3,0.8-0.4c0.3-0.1,0.7-0.1,1.1-0.1c0.1,0,0.3,0,0.5,0
			c0.2,0,0.3,0,0.5,0c0.1,0,0.3,0,0.4,0.1c0.1,0,0.2,0,0.3,0.1c0.1,0,0.1,0,0.1,0.1c0,0,0,0.1,0,0.1v3.4h0.9V89h-6.2
			c-0.1,0-0.2,0-0.2,0C42.1,89,42,89,42,88.9V87.8z M46.3,87.8v-2.6c-0.2,0-0.4,0-0.7,0c-0.8,0-1.2,0.4-1.2,1.2v0.2
			c0,0.4,0.1,0.7,0.3,0.9c0.2,0.2,0.5,0.3,0.9,0.3H46.3z M44.8,81.9c0-0.1,0-0.1,0.1-0.2c0.1,0,0.1-0.1,0.2-0.1h0.8
			c0.1,0,0.1,0,0.2,0.1c0,0,0.1,0.1,0.1,0.2v0.8c0,0.1,0,0.1-0.1,0.2c0,0-0.1,0.1-0.2,0.1h-0.8c-0.1,0-0.1,0-0.2-0.1
			c0,0-0.1-0.1-0.1-0.2V81.9z"/>
		<path class="st1" d="M48.1,87.8c0,0,0-0.1,0.1-0.1c0.1,0,0.1,0,0.2,0h0.7c0.2,0,0.3,0,0.3,0c0.1,0,0.1-0.1,0.1-0.3v-1.2
			c0-0.4,0-0.9,0-1.4c0-0.1,0-0.1,0.1-0.1c0,0,0.1-0.1,0.2-0.1h0.9c0.1,0,0.1,0,0.2,0.1c0,0,0.1,0.1,0.1,0.1c0,0.2,0,0.4,0,0.6
			c0,0.2,0,0.3,0,0.5v0.5v0.5c0,0.4,0,0.8,0,1.1c0,0.3,0,0.5,0,0.7c0,0.1,0,0.1-0.1,0.2c0,0-0.1,0.1-0.2,0.1c-0.1,0-0.2,0-0.3,0.1
			c-0.1,0-0.3,0-0.4,0c-0.2,0-0.3,0-0.5,0c-0.2,0-0.3,0-0.5,0h-0.4c-0.1,0-0.2,0-0.2,0c-0.1,0-0.1-0.1-0.1-0.1V87.8z M49.5,82.4
			c0-0.1,0-0.1,0.1-0.2c0,0,0.1-0.1,0.2-0.1h0.8c0.1,0,0.1,0,0.2,0.1c0,0,0.1,0.1,0.1,0.2v0.8c0,0.1,0,0.1-0.1,0.2
			c0,0-0.1,0.1-0.2,0.1h-0.8c-0.1,0-0.1,0-0.2-0.1c0,0-0.1-0.1-0.1-0.2V82.4z"/>
		<path class="st1" d="M55.8,85.9c0.1,0,0.2,0.1,0.2,0.2c0,0.2,0,0.3,0,0.5c0,0.2,0,0.3,0,0.4c0,0.4,0,0.7,0.1,1.1
			c0.1,0.3,0.2,0.6,0.3,0.8c0.2,0.2,0.4,0.4,0.7,0.5c0.3,0.1,0.7,0.2,1.1,0.2c0.1,0,0.3,0,0.4,0c0.1,0,0.3,0,0.4,0
			c0-0.3,0-0.6,0-0.9v-0.8v-3c0-0.1,0-0.1,0.1-0.1c0,0,0.1-0.1,0.1-0.1h0.9c0.1,0,0.1,0,0.1,0.1s0,0.1,0,0.1v2.9h0.9V89h-0.9v0.7
			c0,0.3,0,0.5,0,0.7c0,0.1-0.1,0.2-0.2,0.2c-0.3,0.1-0.6,0.1-0.9,0.2c-0.3,0-0.6,0-1,0c-1.2,0-2-0.3-2.6-0.8
			c-0.6-0.5-0.8-1.3-0.8-2.5c0-0.1,0-0.2,0-0.3c0-0.1,0-0.3,0-0.4c0-0.1,0-0.3,0-0.4c0-0.1,0-0.3,0.1-0.4c0-0.1,0-0.1,0.1-0.2
			c0,0,0.1,0,0.2,0H55.8z M56.8,82.9c0-0.1,0-0.1,0.1-0.2c0,0,0.1-0.1,0.2-0.1h0.8c0.1,0,0.1,0,0.2,0.1c0,0,0.1,0.1,0.1,0.2v0.8
			c0,0.1,0,0.1-0.1,0.2c0,0-0.1,0.1-0.2,0.1h-0.8c-0.1,0-0.1,0-0.2-0.1c0,0-0.1-0.1-0.1-0.2V82.9z"/>
		<path class="st1" d="M60.8,87.8c0,0,0-0.1,0.1-0.1c0.1,0,0.1,0,0.2,0h1.1c-0.1-0.1-0.2-0.3-0.3-0.6c-0.1-0.2-0.1-0.5-0.1-0.8v-0.1
			c0-0.4,0.1-0.7,0.2-1c0.1-0.3,0.3-0.5,0.6-0.7c0.2-0.2,0.5-0.3,0.8-0.4c0.3-0.1,0.7-0.1,1-0.1c0.2,0,0.5,0,0.7,0
			c0.2,0,0.4,0.1,0.6,0.1c0.1,0,0.1,0,0.2,0.1c0,0,0.1,0.1,0.1,0.1V85c0,0.1-0.1,0.2-0.2,0.2c-0.1,0-0.2,0-0.3,0c-0.1,0-0.2,0-0.2,0
			c-0.1,0-0.2,0-0.3,0c-0.1,0-0.2,0-0.3,0c-0.5,0-0.8,0.1-1.1,0.3c-0.3,0.2-0.4,0.5-0.4,0.9v0.1c0,0.3,0.1,0.6,0.2,0.8
			c0.1,0.2,0.3,0.4,0.4,0.4h2.2c0.1,0,0.1,0,0.1,0.1c0,0,0.1,0.1,0.1,0.1v1c0,0.1,0,0.1-0.1,0.1c0,0-0.1,0-0.1,0h-4.8
			c-0.1,0-0.2,0-0.2,0c-0.1,0-0.1-0.1-0.1-0.1V87.8z"/>
		<path class="st1" d="M70.9,85.9c0.1,0,0.2,0.1,0.2,0.2c0,0.2,0,0.3,0,0.5c0,0.2,0,0.3,0,0.4c0,0.4,0,0.7,0.1,1.1
			c0.1,0.3,0.2,0.6,0.3,0.8c0.2,0.2,0.4,0.4,0.7,0.5c0.3,0.1,0.7,0.2,1.1,0.2c0.1,0,0.3,0,0.4,0c0.1,0,0.3,0,0.4,0
			c0-0.3,0-0.6,0-0.9v-0.8v-3c0-0.1,0-0.1,0.1-0.1c0,0,0.1-0.1,0.1-0.1h0.9c0.1,0,0.1,0,0.1,0.1c0,0,0.1,0.1,0.1,0.1v2.9h0.9V89
			h-0.9v0.7c0,0.3,0,0.5,0,0.7c0,0.1-0.1,0.2-0.2,0.2c-0.3,0.1-0.6,0.1-0.9,0.2c-0.3,0-0.6,0-1,0c-1.2,0-2-0.3-2.6-0.8
			c-0.6-0.5-0.8-1.3-0.8-2.5c0-0.1,0-0.2,0-0.3c0-0.1,0-0.3,0-0.4c0-0.1,0-0.3,0-0.4c0-0.1,0-0.3,0.1-0.4c0-0.1,0-0.1,0.1-0.2
			c0,0,0.1,0,0.2,0H70.9z M71.9,82.9c0-0.1,0-0.1,0.1-0.2c0.1,0,0.1-0.1,0.2-0.1h0.8c0.1,0,0.1,0,0.2,0.1c0,0,0.1,0.1,0.1,0.2v0.8
			c0,0.1,0,0.1-0.1,0.2c0,0-0.1,0.1-0.2,0.1h-0.8c-0.1,0-0.1,0-0.2-0.1c0,0-0.1-0.1-0.1-0.2V82.9z"/>
		<path class="st1" d="M75.8,87.8c0,0,0-0.1,0.1-0.1c0.1,0,0.1,0,0.2,0h0.5c0.1,0,0.1,0,0.2,0c0.1,0,0.1,0,0.2,0
			c0.1,0,0.1-0.1,0.1-0.1c0,0,0.1-0.1,0.1-0.2v-6c0-0.1,0-0.1,0.1-0.2c0,0,0.1-0.1,0.1-0.1h1c0.1,0,0.1,0,0.1,0.1
			c0,0,0.1,0.1,0.1,0.2v6.2c0.1,0.1,0.2,0.1,0.3,0.1c0.1,0,0.3,0,0.4,0h0.3V89h-0.1c-0.3,0-0.5,0-0.8-0.1c-0.3,0-0.5-0.1-0.7-0.3
			c-0.1,0.1-0.2,0.1-0.3,0.2c-0.1,0-0.2,0.1-0.4,0.1c-0.1,0-0.3,0-0.4,0.1c-0.1,0-0.3,0-0.4,0h-0.4c-0.1,0-0.2,0-0.2,0
			c-0.1,0-0.1-0.1-0.1-0.1V87.8z"/>
		<path class="st1" d="M79.1,87.8c0,0,0-0.1,0.1-0.1c0.1,0,0.2,0,0.2,0h1.1c-0.1-0.1-0.2-0.3-0.3-0.6c-0.1-0.2-0.1-0.5-0.1-0.8v-0.1
			c0-0.4,0.1-0.7,0.2-1c0.1-0.3,0.3-0.5,0.6-0.7c0.2-0.2,0.5-0.3,0.8-0.4c0.3-0.1,0.7-0.1,1-0.1c0.3,0,0.5,0,0.6,0
			c0.2,0,0.4,0.1,0.6,0.1c0.1,0,0.1,0,0.2,0.1c0,0,0.1,0.1,0.1,0.1V85c0,0.1-0.1,0.2-0.2,0.2c-0.1,0-0.2,0-0.3,0c-0.1,0-0.2,0-0.3,0
			c-0.1,0-0.2,0-0.2,0c-0.1,0-0.2,0-0.3,0c-0.5,0-0.8,0.1-1.1,0.3c-0.3,0.2-0.4,0.5-0.4,0.9v0.1c0,0.3,0.1,0.6,0.2,0.8
			c0.1,0.2,0.3,0.4,0.4,0.4h2.2c0.1,0,0.1,0,0.1,0.1c0,0,0.1,0.1,0.1,0.1v1c0,0.1,0,0.1-0.1,0.1c0,0-0.1,0-0.1,0h-4.8
			c-0.1,0-0.2,0-0.2,0c-0.1,0-0.1-0.1-0.1-0.1V87.8z"/>
		<path class="st1" d="M85.7,91.7c-0.1,0-0.2,0-0.2-0.1v-0.3c0-0.1,0.1-0.1,0.2-0.1h0.2c-0.1-0.1-0.1-0.2-0.1-0.3c0-0.1,0-0.2,0-0.3
			c0-0.6,0.3-0.9,1-0.9c0.1,0,0.1,0,0.2,0c0.1,0,0.2,0,0.3,0.1c0.1,0,0.1,0,0.1,0.1v0.3c0,0.1,0,0.1-0.1,0.1h-0.4
			c-0.2,0-0.3,0-0.4,0.1c-0.1,0.1-0.1,0.2-0.1,0.3c0,0.1,0,0.2,0.1,0.3c0,0.1,0.1,0.1,0.2,0.2h0.7c0.1,0,0.2,0,0.2,0.1v0.3
			c0,0.1-0.1,0.1-0.2,0.1H85.7z M85.9,81.3c0-0.1,0-0.1,0.1-0.1c0,0,0.1-0.1,0.1-0.1h0.9c0.1,0,0.1,0,0.2,0.1c0,0,0.1,0.1,0.1,0.1
			v7.5c0,0.1,0,0.1-0.1,0.1c0,0-0.1,0.1-0.2,0.1h-0.9C86.1,89,86,89,86,89c0,0-0.1-0.1-0.1-0.1V81.3z"/>
		<path class="st1" d="M71.1,44.4c0,0,1.8,3.8-1,4.2c0,0-1.2-0.1-2.3-1c0,0-1,2.6-4.1,0.8c0,0-2.2-2.3-2.6-2.9l0.9-0.3
			c0,0,3.9,4.3,3.3,1.2L64.7,45l1.8-0.2c0,0,2.8,3.6,3,1.9l-0.8-2.2L71.1,44.4z"/>
		<path class="st1" d="M70.1,48.9L70.1,48.9c-0.1,0-1.1-0.1-2.2-0.8c-0.3,0.5-0.9,1.2-2,1.3c-0.7,0.1-1.6-0.1-2.5-0.6l-0.1-0.1
			c-0.2-0.2-2.3-2.3-2.7-3l-0.2-0.4l1.6-0.5l0.2,0.2c1,1.1,2.3,2.3,2.7,2.2c0,0,0-0.2-0.1-0.7l-0.7-1.8l2.5-0.3l0.1,0.2
			c0.9,1.2,2,2.2,2.4,2.2c0,0,0,0,0-0.1l-0.9-2.6l3.1-0.2l0.1,0.2c0,0.1,1.1,2.3,0.3,3.7C71.5,48.5,70.9,48.8,70.1,48.9L70.1,48.9z
			 M67.6,47l0.4,0.3c0.9,0.8,1.9,0.9,2.1,0.9c0.5-0.1,0.9-0.3,1-0.6c0.4-0.8,0-2.2-0.2-2.8l-1.7,0.1l0.6,1.9l0,0.1
			c-0.1,0.6-0.5,0.7-0.7,0.8c-0.9,0.1-2.2-1.5-2.9-2.3l-1.1,0.1l0.4,1c0.1,0.7,0.1,1.1-0.1,1.3c-0.1,0.2-0.3,0.2-0.5,0.3
			c-0.9,0.1-2.5-1.6-3.2-2.3l-0.2,0.1c0.6,0.7,1.7,1.9,2.2,2.4c0.7,0.4,1.4,0.6,2,0.5c1.1-0.1,1.6-1.2,1.6-1.2L67.6,47z"/>
		<path class="st1" d="M3.2,71.8c0-0.3,0-0.6,0-1c0-0.4,0.1-0.8,0.1-1.3c0-0.5,0.1-0.9,0.1-1.4c0.1-0.5,0.1-0.9,0.2-1.3
			C3.8,66.2,4,66,4.4,66h3c0.5,0,0.7,0.2,0.7,0.7C8,67.3,8,67.9,7.9,68.4c0,0.6-0.1,1-0.1,1.4c0,1.3,0.1,2.6,0.2,3.7
			c0.2,1.1,0.5,2.1,1.1,3c0.5,0.8,1.3,1.5,2.3,2c1,0.5,2.4,0.7,4.1,0.7c0.7,0,1.3,0,1.9-0.1c0.6,0,1.1-0.1,1.7-0.2
			c0-0.6,0-1.2,0.1-1.7c0-0.5,0-1,0-1.4c0-0.4,0-0.9,0-1.3v-1.4v-3.4c0-2.9,0.8-5.1,2.5-6.4c1.7-1.4,4.1-2.1,7.3-2.1
			c1,0,2,0.1,3,0.2c1,0.1,1.8,0.2,2.5,0.3c0.2,0.1,0.4,0.1,0.5,0.2c0.1,0.1,0.2,0.3,0.2,0.5v8.7c0,0.6,0.1,0.9,0.4,1.1
			c0.3,0.2,0.7,0.3,1.4,0.3h1.8v4.9h-3c-0.9,0-1.7-0.1-2.3-0.2c-0.7-0.1-1.2-0.4-1.7-0.7c-0.4-0.4-0.8-0.9-1-1.5
			c-0.2-0.6-0.3-1.4-0.3-2.4v-6.8c-0.4-0.1-0.7-0.1-1-0.1c-0.3,0-0.6,0-0.9,0c-1.5,0-2.6,0.3-3.3,1c-0.7,0.7-1.1,1.8-1.1,3.5v6.3
			c0,0.9,0,1.9,0,3c0,1.1-0.1,2.1-0.1,3c0,0.5-0.3,0.7-0.8,0.8c-1.1,0.2-2.3,0.3-3.6,0.4c-1.3,0.1-2.7,0.2-4.1,0.2
			c-2.2,0-4.1-0.3-5.6-0.8C8.3,82.6,7,81.9,6,80.9c-1-1-1.7-2.3-2.2-3.8C3.4,75.6,3.2,73.8,3.2,71.8 M8.2,87.4
			c0-0.3,0.1-0.5,0.3-0.6c0.2-0.1,0.4-0.2,0.6-0.2h2.6c0.2,0,0.4,0.1,0.6,0.2c0.2,0.1,0.3,0.3,0.3,0.6v2.7c0,0.2-0.1,0.4-0.3,0.5
			c-0.2,0.2-0.4,0.2-0.6,0.2H9.1c-0.2,0-0.4-0.1-0.6-0.2c-0.2-0.2-0.3-0.3-0.3-0.5V87.4z M15.3,87.4c0-0.3,0.1-0.5,0.3-0.6
			c0.2-0.1,0.4-0.2,0.6-0.2h2.6c0.2,0,0.4,0.1,0.6,0.2c0.2,0.1,0.3,0.3,0.3,0.6v2.7c0,0.2-0.1,0.4-0.3,0.5c-0.2,0.2-0.4,0.2-0.6,0.2
			h-2.6c-0.2,0-0.4-0.1-0.6-0.2c-0.2-0.2-0.3-0.3-0.3-0.5V87.4z"/>
		<path class="st1" d="M37.3,73c0-0.1,0.1-0.2,0.4-0.3c0.3-0.1,0.6-0.1,0.8-0.1h1.8c0.2,0,0.5,0,0.7,0c0.3,0,0.5-0.1,0.7-0.2
			c0.2-0.1,0.4-0.2,0.6-0.4c0.1-0.2,0.2-0.4,0.2-0.7v-9.6c0-0.2,0.1-0.4,0.2-0.5c0.1-0.1,0.3-0.2,0.6-0.2h3.3c0.2,0,0.4,0.1,0.5,0.2
			c0.1,0.1,0.2,0.3,0.2,0.5v10.2c0.1,0.1,0.2,0.2,0.4,0.3c0.2,0.1,0.4,0.2,0.7,0.2c0.3,0.1,0.5,0.1,0.7,0.1c0.2,0,0.5,0,0.6,0h0.9
			v4.9h-0.5c-1,0-2-0.1-3-0.3c-1-0.2-1.8-0.5-2.5-1.1c-0.4,0.3-0.8,0.5-1.2,0.6c-0.4,0.2-0.9,0.3-1.4,0.4c-0.5,0.1-1,0.2-1.4,0.2
			c-0.5,0-0.9,0.1-1.3,0.1h-1c-0.3,0-0.6,0-0.8-0.1c-0.3-0.1-0.4-0.2-0.4-0.3V73z"/>
		<path class="st1" d="M42.6,52.8c0-0.3,0.1-0.5,0.3-0.6c0.2-0.2,0.4-0.2,0.7-0.2h3c0.2,0,0.4,0.1,0.6,0.2c0.2,0.2,0.2,0.4,0.2,0.6
			v3c0,0.2-0.1,0.4-0.2,0.6c-0.2,0.2-0.4,0.3-0.6,0.3h-3c-0.3,0-0.5-0.1-0.7-0.3c-0.2-0.2-0.2-0.4-0.2-0.6V52.8z"/>
		<path class="st1" d="M49.3,73c0-0.1,0.1-0.2,0.4-0.3c0.3-0.1,0.6-0.1,0.8-0.1h1.9c0.2,0,0.5,0,0.7,0c0.3,0,0.5-0.1,0.7-0.2
			c0.2-0.1,0.4-0.2,0.5-0.4c0.1-0.2,0.2-0.4,0.2-0.7V49c0-0.2,0.1-0.4,0.2-0.6c0.2-0.2,0.3-0.2,0.5-0.2h3.5c0.2,0,0.4,0.1,0.5,0.2
			c0.1,0.2,0.2,0.3,0.2,0.6v22.8c0.2,0.3,0.6,0.5,1.1,0.5c0.5,0.1,1,0.1,1.3,0.1h1v4.9h-0.5c-1,0-2-0.1-3-0.3
			c-1-0.2-1.8-0.5-2.5-1.1c-0.4,0.3-0.8,0.5-1.2,0.6c-0.4,0.2-0.9,0.3-1.4,0.4c-0.5,0.1-0.9,0.2-1.4,0.2c-0.5,0-0.9,0.1-1.3,0.1
			h-1.3c-0.3,0-0.6,0-0.8-0.1c-0.3-0.1-0.4-0.2-0.4-0.3V73z"/>
		<path class="st1" d="M61.5,73c0-0.1,0.1-0.2,0.4-0.3c0.3-0.1,0.6-0.1,0.8-0.1h5.3l-2.9-7.4c-0.1-0.1-0.1-0.3-0.2-0.5
			c0-0.2,0-0.4,0-0.5l0.1-2c0-0.2,0.1-0.4,0.2-0.5c0.1-0.2,0.3-0.3,0.5-0.5c0.5-0.4,1-0.7,1.7-1c0.7-0.3,1.4-0.6,2.1-0.8
			c0.7-0.2,1.5-0.4,2.3-0.5c0.8-0.1,1.6-0.2,2.3-0.2c1.3,0,2.5,0.1,3.6,0.4c1.1,0.3,2.1,0.7,2.9,1.3c0.8,0.6,1.5,1.4,2,2.4
			c0.5,1,0.7,2.2,0.7,3.6V67c0,0.5,0,1-0.1,1.6c-0.1,0.5-0.2,1.1-0.4,1.6c-0.2,0.5-0.4,1-0.6,1.4c-0.2,0.4-0.5,0.7-0.8,1h4.8v4.9
			H62.8c-0.3,0-0.6,0-0.8-0.1c-0.3-0.1-0.4-0.2-0.4-0.3V73z M75.3,72.6c0.6-0.1,1.1-0.3,1.5-0.7c0.4-0.3,0.8-0.7,1.1-1.2
			c0.3-0.5,0.5-1,0.7-1.6c0.1-0.6,0.2-1.2,0.2-1.9v-0.3c0-1.4-0.4-2.4-1.1-3.1c-0.8-0.7-1.9-1-3.3-1c-0.6,0-1.3,0.1-2.1,0.2
			c-0.8,0.1-1.6,0.4-2.3,0.9l3.4,8.6H75.3z M72,50.9c0-0.3,0.1-0.5,0.3-0.6c0.2-0.2,0.4-0.2,0.7-0.2h3c0.2,0,0.4,0.1,0.6,0.2
			c0.2,0.2,0.3,0.4,0.3,0.6v3c0,0.2-0.1,0.4-0.3,0.6c-0.2,0.2-0.4,0.2-0.6,0.2h-3c-0.3,0-0.5-0.1-0.7-0.2C72,54.4,72,54.2,72,53.9
			V50.9z"/>
		<path class="st1" d="M84.9,73c0-0.1,0.1-0.2,0.4-0.3c0.3-0.1,0.6-0.1,0.8-0.1h1.2c0.5,0,1-0.1,1.4-0.2c0.5-0.1,0.7-0.5,0.7-1.1
			v-7.8c0-0.2,0.1-0.4,0.2-0.6c0.2-0.2,0.3-0.2,0.5-0.2h3.3c0.2,0,0.4,0.1,0.5,0.2c0.1,0.2,0.2,0.3,0.2,0.6V72
			c0.1,0.2,0.2,0.3,0.4,0.4c0.2,0.1,0.4,0.2,0.7,0.2c0.2,0.1,0.5,0.1,0.7,0.1c0.2,0,0.5,0,0.6,0h0.6c0.2,0,0.5,0,0.7,0
			c0.2,0,0.5-0.1,0.7-0.2c0.2-0.1,0.4-0.2,0.5-0.4c0.1-0.2,0.2-0.4,0.2-0.7V62c0-0.2,0.1-0.4,0.2-0.5c0.2-0.1,0.3-0.2,0.5-0.2h3.2
			c0.2,0,0.4,0.1,0.5,0.2c0.2,0.1,0.2,0.3,0.2,0.5V72c0.2,0.3,0.5,0.5,1,0.6c0.5,0.1,1.1,0.1,1.6,0.1h0.9c0.6,0,1-0.1,1.2-0.2
			c0.2-0.1,0.3-0.5,0.3-1.1V69v-2.7c0-0.9,0-1.9,0-2.9c0-1,0-1.9-0.1-2.8c0-0.2,0.1-0.3,0.2-0.5c0.1-0.2,0.3-0.2,0.5-0.2h3.3
			c0.3,0,0.5,0.1,0.6,0.2c0.1,0.1,0.2,0.3,0.2,0.5c0,0.8,0,1.6,0.1,2.4c0,0.7,0,1.4,0,2.1c0,0.7,0,1.3,0,2v2v2.2c0,0.7,0,1.5,0,2.3
			c0,0.8-0.1,1.6-0.1,2.3c0,0.2-0.1,0.4-0.2,0.6c-0.1,0.2-0.3,0.4-0.6,0.5c-0.5,0.2-1.2,0.3-2,0.3c-0.8,0.1-1.6,0.1-2.5,0.1H108
			c-0.9,0-1.9-0.1-2.9-0.2c-1-0.1-1.9-0.5-2.7-1c-0.6,0.5-1.3,0.8-2.1,1c-0.8,0.2-1.7,0.3-2.6,0.3h-0.5c-0.9,0-1.8-0.1-2.6-0.3
			c-0.8-0.2-1.6-0.5-2.3-1c-0.7,0.5-1.5,0.9-2.4,1c-0.9,0.2-1.8,0.3-2.7,0.3h-1c-0.3,0-0.6,0-0.8-0.1c-0.3-0.1-0.4-0.2-0.4-0.3V73z
			 M95.5,53.4c0-0.3,0.1-0.5,0.3-0.6c0.2-0.2,0.4-0.2,0.7-0.2h2.7c0.3,0,0.5,0.1,0.7,0.2c0.2,0.2,0.3,0.4,0.3,0.6v2.8
			c0,0.2-0.1,0.4-0.3,0.6C99.5,57,99.3,57,99.1,57h-2.7c-0.3,0-0.5-0.1-0.7-0.2c-0.2-0.2-0.3-0.3-0.3-0.6V53.4z M99.2,48
			c0-0.2,0.1-0.4,0.3-0.6c0.2-0.2,0.4-0.3,0.6-0.3h2.5c0.3,0,0.5,0.1,0.7,0.3c0.2,0.2,0.3,0.4,0.3,0.6v2.3c0,0.2-0.1,0.4-0.3,0.6
			c-0.2,0.2-0.4,0.2-0.7,0.2h-2.5c-0.2,0-0.4-0.1-0.6-0.2c-0.2-0.2-0.3-0.3-0.3-0.6V48z M102.6,53.4c0-0.3,0.1-0.5,0.3-0.6
			c0.2-0.2,0.4-0.2,0.6-0.2h2.7c0.3,0,0.5,0.1,0.6,0.2c0.2,0.2,0.3,0.4,0.3,0.6v2.8c0,0.2-0.1,0.4-0.3,0.6c-0.2,0.2-0.4,0.2-0.6,0.2
			h-2.7c-0.2,0-0.4-0.1-0.6-0.2c-0.2-0.2-0.3-0.3-0.3-0.6V53.4z"/>
	</g>
	<g>
		<g>
			<path class="st2" d="M25,84.2c0.1,0,0.2,0.1,0.2,0.2c0,0.1,0,0.2,0,0.3v0.2c0,0.3,0,0.5,0.1,0.6c0.1,0.2,0.2,0.3,0.3,0.4
				c0.2,0.1,0.3,0.2,0.6,0.2c0.2,0,0.5,0.1,0.9,0.1h2.5c0.1,0,0.1,0,0.2,0c0.1,0,0.1,0,0.2,0c0.1,0,0.1-0.1,0.1-0.1
				c0,0,0.1-0.1,0.1-0.2v-6c0-0.1,0-0.1,0.1-0.2c0,0,0.1-0.1,0.1-0.1h0.9c0.1,0,0.1,0,0.1,0.1c0,0,0.1,0.1,0.1,0.2V86
				c0,0,0.1,0.1,0.1,0.1c0,0,0.1,0,0.2,0.1c0.1,0,0.1,0,0.2,0c0.1,0,0.1,0,0.2,0h0.3v1.3h-0.1c-0.2,0-0.4,0-0.7-0.1
				c-0.3,0-0.5-0.1-0.7-0.2c-0.2,0.1-0.4,0.2-0.7,0.2c-0.3,0-0.5,0.1-0.8,0.1h-2.6c-0.6,0-1,0-1.4-0.2c-0.4-0.1-0.7-0.2-0.9-0.4
				c-0.2-0.2-0.4-0.4-0.5-0.7c-0.1-0.3-0.1-0.6-0.1-1c0,0,0-0.1,0-0.2c0-0.1,0-0.1,0-0.2c0-0.1,0-0.2,0-0.2c0-0.1,0-0.1,0-0.2
				c0-0.1,0-0.1,0.1-0.2c0,0,0.1,0,0.1,0H25z M26.5,83.3c0-0.1,0.1-0.1,0.2-0.1h0.2c0-0.1-0.1-0.2-0.1-0.3c0-0.1,0-0.2,0-0.3
				c0-0.3,0.1-0.6,0.3-0.8c0.2-0.2,0.5-0.3,0.9-0.3c0.1,0,0.1,0,0.2,0c0.1,0,0.2,0,0.3,0.1c0.1,0,0.1,0.1,0.1,0.2v0.4
				c0,0.1,0,0.1-0.1,0.1c0,0-0.1,0-0.2,0c-0.1,0-0.2,0-0.2,0c-0.2,0-0.3,0-0.3,0.1c-0.1,0.1-0.1,0.2-0.1,0.3c0,0.1,0,0.2,0.1,0.3
				c0,0.1,0.1,0.1,0.1,0.1h0.8c0.1,0,0.2,0,0.2,0.1v0.4c0,0.1-0.1,0.1-0.2,0.1h-1.8c-0.1,0-0.2,0-0.2-0.1V83.3z"/>
			<path class="st2" d="M32,86.3c0,0,0-0.1,0.1-0.1c0.1,0,0.1,0,0.2,0h0.3c0.1,0,0.3,0,0.4-0.1c0.1,0,0.2-0.1,0.2-0.3v-2.1
				c0-0.1,0-0.1,0.1-0.2c0,0,0.1-0.1,0.1-0.1h0.9c0.1,0,0.1,0,0.1,0.1c0,0,0.1,0.1,0.1,0.2V86c0,0,0.1,0.1,0.1,0.1
				c0.1,0,0.1,0,0.2,0.1c0.1,0,0.1,0,0.2,0c0.1,0,0.1,0,0.2,0h0.1c0.1,0,0.1,0,0.2,0c0.1,0,0.1,0,0.2,0c0.1,0,0.1-0.1,0.1-0.1
				c0,0,0.1-0.1,0.1-0.2v-2.5c0-0.1,0-0.1,0.1-0.1c0,0,0.1-0.1,0.1-0.1H37c0.1,0,0.1,0,0.1,0.1c0,0,0.1,0.1,0.1,0.1V86
				c0,0.1,0.1,0.1,0.2,0.2c0.1,0,0.3,0,0.4,0H38c0.1,0,0.1,0,0.2,0c0.1,0,0.1,0,0.2,0c0.1,0,0.1-0.1,0.2-0.1c0,0,0.1-0.1,0.1-0.2
				v-2.9c0-0.1,0-0.1,0.1-0.2c0,0,0.1-0.1,0.1-0.1h0.9c0.1,0,0.1,0,0.1,0.1c0,0,0.1,0.1,0.1,0.2v3c0,0,0.1,0.1,0.1,0.1
				c0.1,0,0.1,0,0.2,0.1c0.1,0,0.1,0,0.2,0c0.1,0,0.1,0,0.2,0h0.3v1.3h-0.1c-0.2,0-0.4,0-0.7-0.1c-0.3,0-0.5-0.1-0.7-0.3
				c-0.2,0.2-0.4,0.3-0.6,0.3c-0.2,0-0.5,0.1-0.7,0.1h-0.1c-0.2,0-0.5,0-0.7-0.1c-0.2,0-0.4-0.1-0.6-0.3c-0.2,0.1-0.3,0.2-0.6,0.3
				c-0.2,0.1-0.4,0.1-0.7,0.1h-0.1c-0.2,0-0.4,0-0.6-0.1c-0.2,0-0.4-0.1-0.6-0.3c-0.1,0.1-0.2,0.1-0.3,0.2c-0.1,0-0.2,0.1-0.4,0.1
				c-0.1,0-0.2,0-0.4,0.1c-0.1,0-0.2,0-0.3,0h-0.3c-0.1,0-0.2,0-0.2,0c-0.1,0-0.1-0.1-0.1-0.1V86.3z"/>
			<path class="st2" d="M40.5,86.3c0,0,0-0.1,0.1-0.1c0.1,0,0.2,0,0.2,0h1.2c-0.1-0.1-0.2-0.3-0.3-0.5c-0.1-0.2-0.1-0.5-0.1-0.8
				v-0.2c0-0.4,0.1-0.7,0.2-1c0.1-0.3,0.3-0.5,0.5-0.7c0.2-0.2,0.5-0.3,0.8-0.4c0.3-0.1,0.7-0.1,1.1-0.1c0.1,0,0.3,0,0.5,0
				c0.2,0,0.3,0,0.5,0c0.1,0,0.3,0,0.4,0.1c0.1,0,0.2,0,0.3,0.1c0.1,0,0.1,0,0.1,0.1c0,0,0,0.1,0,0.1v3.4H47v1.3h-6.2
				c-0.1,0-0.2,0-0.2,0c-0.1,0-0.1-0.1-0.1-0.1V86.3z M44.8,86.2v-2.6c-0.2,0-0.4,0-0.7,0c-0.8,0-1.2,0.4-1.2,1.2v0.2
				c0,0.4,0.1,0.7,0.3,0.9c0.2,0.2,0.5,0.3,0.9,0.3H44.8z M43.3,80.3c0-0.1,0-0.1,0.1-0.2c0.1,0,0.1-0.1,0.2-0.1h0.8
				c0.1,0,0.1,0,0.2,0.1c0,0,0.1,0.1,0.1,0.2v0.8c0,0.1,0,0.1-0.1,0.2c0,0-0.1,0.1-0.2,0.1h-0.8c-0.1,0-0.1,0-0.2-0.1
				c0,0-0.1-0.1-0.1-0.2V80.3z"/>
			<path class="st2" d="M46.6,86.3c0,0,0-0.1,0.1-0.1c0.1,0,0.1,0,0.2,0h0.7c0.2,0,0.3,0,0.3,0c0.1,0,0.1-0.1,0.1-0.3v-1.2
				c0-0.4,0-0.9,0-1.4c0-0.1,0-0.1,0.1-0.1c0,0,0.1-0.1,0.2-0.1H49c0.1,0,0.1,0,0.2,0.1c0,0,0.1,0.1,0.1,0.1c0,0.2,0,0.4,0,0.6
				c0,0.2,0,0.3,0,0.5v0.5v0.5c0,0.4,0,0.8,0,1.1c0,0.3,0,0.5,0,0.7c0,0.1,0,0.1-0.1,0.2c0,0-0.1,0.1-0.2,0.1c-0.1,0-0.2,0-0.3,0.1
				c-0.1,0-0.3,0-0.4,0c-0.2,0-0.3,0-0.5,0c-0.2,0-0.3,0-0.5,0h-0.4c-0.1,0-0.2,0-0.2,0c-0.1,0-0.1-0.1-0.1-0.1V86.3z M47.9,80.8
				c0-0.1,0-0.1,0.1-0.2c0,0,0.1-0.1,0.2-0.1H49c0.1,0,0.1,0,0.2,0.1c0,0,0.1,0.1,0.1,0.2v0.8c0,0.1,0,0.1-0.1,0.2
				c0,0-0.1,0.1-0.2,0.1h-0.8c-0.1,0-0.1,0-0.2-0.1c0,0-0.1-0.1-0.1-0.2V80.8z"/>
			<path class="st2" d="M54.3,84.4c0.1,0,0.2,0.1,0.2,0.2c0,0.2,0,0.3,0,0.5c0,0.2,0,0.3,0,0.4c0,0.4,0,0.7,0.1,1.1
				c0.1,0.3,0.2,0.6,0.3,0.8c0.2,0.2,0.4,0.4,0.7,0.5c0.3,0.1,0.7,0.2,1.1,0.2c0.1,0,0.3,0,0.4,0c0.1,0,0.3,0,0.4,0
				c0-0.3,0-0.6,0-0.9v-0.8v-3c0-0.1,0-0.1,0.1-0.1c0,0,0.1-0.1,0.1-0.1h0.9c0.1,0,0.1,0,0.1,0.1c0,0,0,0.1,0,0.1v2.9h0.9v1.3h-0.9
				v0.7c0,0.3,0,0.5,0,0.7c0,0.1-0.1,0.2-0.2,0.2c-0.3,0.1-0.6,0.1-0.9,0.2c-0.3,0-0.6,0-1,0c-1.2,0-2-0.3-2.6-0.8
				c-0.6-0.5-0.8-1.3-0.8-2.5c0-0.1,0-0.2,0-0.3c0-0.1,0-0.3,0-0.4c0-0.1,0-0.3,0-0.4c0-0.1,0-0.3,0.1-0.4c0-0.1,0-0.1,0.1-0.2
				c0,0,0.1,0,0.2,0H54.3z M55.3,81.3c0-0.1,0-0.1,0.1-0.2c0,0,0.1-0.1,0.2-0.1h0.8c0.1,0,0.1,0,0.2,0.1c0,0,0.1,0.1,0.1,0.2v0.8
				c0,0.1,0,0.1-0.1,0.2c0,0-0.1,0.1-0.2,0.1h-0.8c-0.1,0-0.1,0-0.2-0.1c0,0-0.1-0.1-0.1-0.2V81.3z"/>
			<path class="st2" d="M59.2,86.3c0,0,0-0.1,0.1-0.1c0.1,0,0.1,0,0.2,0h1.1c-0.1-0.1-0.2-0.3-0.3-0.6c-0.1-0.2-0.1-0.5-0.1-0.8
				v-0.1c0-0.4,0.1-0.7,0.2-1c0.1-0.3,0.3-0.5,0.6-0.7c0.2-0.2,0.5-0.3,0.8-0.4c0.3-0.1,0.7-0.1,1-0.1c0.2,0,0.5,0,0.7,0
				c0.2,0,0.4,0.1,0.6,0.1c0.1,0,0.1,0,0.2,0.1c0,0,0.1,0.1,0.1,0.1v0.8c0,0.1-0.1,0.2-0.2,0.2c-0.1,0-0.2,0-0.3,0
				c-0.1,0-0.2,0-0.2,0c-0.1,0-0.2,0-0.3,0c-0.1,0-0.2,0-0.3,0c-0.5,0-0.8,0.1-1.1,0.3c-0.3,0.2-0.4,0.5-0.4,0.9v0.1
				c0,0.3,0.1,0.6,0.2,0.8c0.1,0.2,0.3,0.4,0.4,0.4h2.2c0.1,0,0.1,0,0.1,0.1c0,0,0.1,0.1,0.1,0.1v1c0,0.1,0,0.1-0.1,0.1
				c0,0-0.1,0-0.1,0h-4.8c-0.1,0-0.2,0-0.2,0c-0.1,0-0.1-0.1-0.1-0.1V86.3z"/>
			<path class="st2" d="M69.3,84.4c0.1,0,0.2,0.1,0.2,0.2c0,0.2,0,0.3,0,0.5c0,0.2,0,0.3,0,0.4c0,0.4,0,0.7,0.1,1.1
				c0.1,0.3,0.2,0.6,0.3,0.8c0.2,0.2,0.4,0.4,0.7,0.5c0.3,0.1,0.7,0.2,1.1,0.2c0.1,0,0.3,0,0.4,0c0.1,0,0.3,0,0.4,0
				c0-0.3,0-0.6,0-0.9v-0.8v-3c0-0.1,0-0.1,0.1-0.1c0,0,0.1-0.1,0.1-0.1h0.9c0.1,0,0.1,0,0.1,0.1c0,0,0.1,0.1,0.1,0.1v2.9h0.9v1.3
				h-0.9v0.7c0,0.3,0,0.5,0,0.7c0,0.1-0.1,0.2-0.2,0.2c-0.3,0.1-0.6,0.1-0.9,0.2c-0.3,0-0.6,0-1,0c-1.2,0-2-0.3-2.6-0.8
				c-0.6-0.5-0.8-1.3-0.8-2.5c0-0.1,0-0.2,0-0.3c0-0.1,0-0.3,0-0.4c0-0.1,0-0.3,0-0.4c0-0.1,0-0.3,0.1-0.4c0-0.1,0-0.1,0.1-0.2
				c0,0,0.1,0,0.2,0H69.3z M70.3,81.3c0-0.1,0-0.1,0.1-0.2c0.1,0,0.1-0.1,0.2-0.1h0.8c0.1,0,0.1,0,0.2,0.1c0,0,0.1,0.1,0.1,0.2v0.8
				c0,0.1,0,0.1-0.1,0.2c0,0-0.1,0.1-0.2,0.1h-0.8c-0.1,0-0.1,0-0.2-0.1c0,0-0.1-0.1-0.1-0.2V81.3z"/>
			<path class="st2" d="M74.2,86.3c0,0,0-0.1,0.1-0.1c0.1,0,0.1,0,0.2,0h0.5c0.1,0,0.1,0,0.2,0c0.1,0,0.1,0,0.2,0
				c0.1,0,0.1-0.1,0.1-0.1c0,0,0.1-0.1,0.1-0.2v-6c0-0.1,0-0.1,0.1-0.2c0,0,0.1-0.1,0.1-0.1h1c0.1,0,0.1,0,0.1,0.1
				c0,0,0.1,0.1,0.1,0.2V86c0.1,0.1,0.2,0.1,0.3,0.1c0.1,0,0.3,0,0.4,0H78v1.3h-0.1c-0.3,0-0.5,0-0.8-0.1c-0.3,0-0.5-0.1-0.7-0.3
				c-0.1,0.1-0.2,0.1-0.3,0.2c-0.1,0-0.2,0.1-0.4,0.1c-0.1,0-0.3,0-0.4,0.1c-0.1,0-0.3,0-0.4,0h-0.4c-0.1,0-0.2,0-0.2,0
				c-0.1,0-0.1-0.1-0.1-0.1V86.3z"/>
			<path class="st2" d="M77.6,86.3c0,0,0-0.1,0.1-0.1c0.1,0,0.2,0,0.2,0H79c-0.1-0.1-0.2-0.3-0.3-0.6c-0.1-0.2-0.1-0.5-0.1-0.8v-0.1
				c0-0.4,0.1-0.7,0.2-1c0.1-0.3,0.3-0.5,0.6-0.7c0.2-0.2,0.5-0.3,0.8-0.4c0.3-0.1,0.7-0.1,1-0.1c0.3,0,0.5,0,0.6,0
				c0.2,0,0.4,0.1,0.6,0.1c0.1,0,0.1,0,0.2,0.1c0,0,0.1,0.1,0.1,0.1v0.8c0,0.1-0.1,0.2-0.2,0.2c-0.1,0-0.2,0-0.3,0
				c-0.1,0-0.2,0-0.3,0c-0.1,0-0.2,0-0.2,0c-0.1,0-0.2,0-0.3,0c-0.5,0-0.8,0.1-1.1,0.3c-0.3,0.2-0.4,0.5-0.4,0.9v0.1
				c0,0.3,0.1,0.6,0.2,0.8c0.1,0.2,0.3,0.4,0.4,0.4h2.2c0.1,0,0.1,0,0.1,0.1c0,0,0.1,0.1,0.1,0.1v1c0,0.1,0,0.1-0.1,0.1
				c0,0-0.1,0-0.1,0h-4.8c-0.1,0-0.2,0-0.2,0c-0.1,0-0.1-0.1-0.1-0.1V86.3z"/>
			<path class="st2" d="M84.1,90.2c-0.1,0-0.2,0-0.2-0.1v-0.3c0-0.1,0.1-0.1,0.2-0.1h0.2c-0.1-0.1-0.1-0.2-0.1-0.3
				c0-0.1,0-0.2,0-0.3c0-0.6,0.3-0.9,1-0.9c0.1,0,0.1,0,0.2,0c0.1,0,0.2,0,0.3,0.1c0.1,0,0.1,0,0.1,0.1v0.3c0,0.1,0,0.1-0.1,0.1
				h-0.4c-0.2,0-0.3,0-0.4,0.1c-0.1,0.1-0.1,0.2-0.1,0.3c0,0.1,0,0.2,0.1,0.3c0,0.1,0.1,0.1,0.2,0.2h0.7c0.1,0,0.2,0,0.2,0.1V90
				c0,0.1-0.1,0.1-0.2,0.1H84.1z M84.4,79.8c0-0.1,0-0.1,0.1-0.1c0,0,0.1-0.1,0.1-0.1h0.9c0.1,0,0.1,0,0.2,0.1c0,0,0.1,0.1,0.1,0.1
				v7.5c0,0.1,0,0.1-0.1,0.1c0,0-0.1,0.1-0.2,0.1h-0.9c-0.1,0-0.1,0-0.1-0.1c0,0-0.1-0.1-0.1-0.1V79.8z"/>
			<path class="st2" d="M69.6,42.8c0,0,1.8,3.8-1,4.2c0,0-1.2-0.1-2.3-1c0,0-1,2.6-4.1,0.8c0,0-2.2-2.3-2.6-2.9l0.9-0.3
				c0,0,3.9,4.3,3.3,1.2l-0.6-1.4l1.8-0.2c0,0,2.8,3.6,3,1.9l-0.8-2.2L69.6,42.8z"/>
			<path class="st2" d="M68.5,47.4L68.5,47.4c-0.1,0-1.1-0.1-2.2-0.8c-0.3,0.5-0.9,1.2-2,1.3c-0.7,0.1-1.6-0.1-2.5-0.6l-0.1-0.1
				c-0.2-0.2-2.3-2.3-2.7-3l-0.2-0.4l1.6-0.5l0.2,0.2c1,1.1,2.3,2.3,2.7,2.2c0,0,0-0.2-0.1-0.7l-0.7-1.8l2.5-0.3l0.1,0.2
				c0.9,1.2,2,2.2,2.4,2.2c0,0,0,0,0-0.1l-0.9-2.6l3.1-0.2l0.1,0.2c0,0.1,1.1,2.3,0.3,3.7C69.9,46.9,69.3,47.2,68.5,47.4L68.5,47.4z
				 M66,45.4l0.4,0.3c0.9,0.8,1.9,0.9,2.1,0.9c0.5-0.1,0.9-0.3,1-0.6c0.4-0.8,0-2.2-0.2-2.8l-1.7,0.1l0.6,1.9l0,0.1
				c-0.1,0.6-0.5,0.7-0.7,0.8c-0.9,0.1-2.2-1.5-2.9-2.3l-1.1,0.1l0.4,1c0.1,0.7,0.1,1.1-0.1,1.3c-0.1,0.2-0.3,0.2-0.5,0.3
				c-0.9,0.1-2.5-1.6-3.2-2.3l-0.2,0.1c0.6,0.7,1.7,1.9,2.2,2.4c0.7,0.4,1.4,0.6,2,0.5c1.1-0.1,1.6-1.2,1.6-1.2L66,45.4z"/>
			<path class="st3" d="M1.6,70.2c0-0.3,0-0.6,0-1c0-0.4,0.1-0.8,0.1-1.3c0-0.5,0.1-0.9,0.1-1.4C2,66,2,65.6,2.1,65.2
				c0.1-0.5,0.3-0.8,0.8-0.8h3c0.5,0,0.7,0.2,0.7,0.7c-0.1,0.6-0.1,1.1-0.1,1.7c0,0.6-0.1,1-0.1,1.4c0,1.3,0.1,2.6,0.2,3.7
				c0.2,1.1,0.5,2.1,1.1,3c0.5,0.8,1.3,1.5,2.3,2c1,0.5,2.4,0.7,4.1,0.7c0.7,0,1.3,0,1.9-0.1c0.6,0,1.1-0.1,1.7-0.2
				c0-0.6,0-1.2,0.1-1.7c0-0.5,0-1,0-1.4c0-0.4,0-0.9,0-1.3v-1.4v-3.4c0-2.9,0.8-5.1,2.5-6.4c1.7-1.4,4.1-2.1,7.3-2.1
				c1,0,2,0.1,3,0.2c1,0.1,1.8,0.2,2.5,0.3c0.2,0.1,0.4,0.1,0.5,0.2c0.1,0.1,0.2,0.3,0.2,0.5v8.7c0,0.6,0.1,0.9,0.4,1.1
				c0.3,0.2,0.7,0.3,1.4,0.3h1.8v4.9h-3c-0.9,0-1.7-0.1-2.3-0.2c-0.7-0.1-1.2-0.4-1.7-0.7c-0.4-0.4-0.8-0.9-1-1.5
				C29,72.8,28.9,72,28.9,71v-6.8c-0.4-0.1-0.7-0.1-1-0.1c-0.3,0-0.6,0-0.9,0c-1.5,0-2.6,0.3-3.3,1c-0.7,0.7-1.1,1.8-1.1,3.5v6.3
				c0,0.9,0,1.9,0,3c0,1.1-0.1,2.1-0.1,3c0,0.5-0.3,0.7-0.8,0.8c-1.1,0.2-2.3,0.3-3.6,0.4c-1.3,0.1-2.7,0.2-4.1,0.2
				c-2.2,0-4.1-0.3-5.6-0.8c-1.6-0.5-2.8-1.3-3.8-2.3c-1-1-1.7-2.3-2.2-3.8C1.8,74,1.6,72.2,1.6,70.2 M6.6,85.8
				c0-0.3,0.1-0.5,0.3-0.6C7.1,85.1,7.3,85,7.5,85h2.6c0.2,0,0.4,0.1,0.6,0.2c0.2,0.1,0.3,0.3,0.3,0.6v2.7c0,0.2-0.1,0.4-0.3,0.5
				c-0.2,0.2-0.4,0.2-0.6,0.2H7.5c-0.2,0-0.4-0.1-0.6-0.2c-0.2-0.2-0.3-0.3-0.3-0.5V85.8z M13.8,85.8c0-0.3,0.1-0.5,0.3-0.6
				c0.2-0.1,0.4-0.2,0.6-0.2h2.6c0.2,0,0.4,0.1,0.6,0.2c0.2,0.1,0.3,0.3,0.3,0.6v2.7c0,0.2-0.1,0.4-0.3,0.5
				c-0.2,0.2-0.4,0.2-0.6,0.2h-2.6c-0.2,0-0.4-0.1-0.6-0.2c-0.2-0.2-0.3-0.3-0.3-0.5V85.8z"/>
			<path class="st3" d="M35.8,71.4c0-0.1,0.1-0.2,0.4-0.3c0.3-0.1,0.6-0.1,0.8-0.1h1.8c0.2,0,0.5,0,0.7,0c0.3,0,0.5-0.1,0.7-0.2
				c0.2-0.1,0.4-0.2,0.6-0.4c0.1-0.2,0.2-0.4,0.2-0.7v-9.6c0-0.2,0.1-0.4,0.2-0.5c0.1-0.1,0.3-0.2,0.6-0.2h3.3
				c0.2,0,0.4,0.1,0.5,0.2c0.1,0.1,0.2,0.3,0.2,0.5v10.2c0.1,0.1,0.2,0.2,0.4,0.3c0.2,0.1,0.4,0.2,0.7,0.2c0.3,0.1,0.5,0.1,0.7,0.1
				c0.2,0,0.5,0,0.6,0h0.9v4.9h-0.5c-1,0-2-0.1-3-0.3c-1-0.2-1.8-0.5-2.5-1.1c-0.4,0.3-0.8,0.5-1.2,0.6c-0.4,0.2-0.9,0.3-1.4,0.4
				c-0.5,0.1-1,0.2-1.4,0.2c-0.5,0-0.9,0.1-1.3,0.1h-1c-0.3,0-0.6,0-0.8-0.1c-0.3-0.1-0.4-0.2-0.4-0.3V71.4z"/>
			<path class="st2" d="M41,51.3c0-0.3,0.1-0.5,0.3-0.6c0.2-0.2,0.4-0.2,0.7-0.2h3c0.2,0,0.4,0.1,0.6,0.2c0.2,0.2,0.2,0.4,0.2,0.6v3
				c0,0.2-0.1,0.4-0.2,0.6c-0.2,0.2-0.4,0.3-0.6,0.3h-3c-0.3,0-0.5-0.1-0.7-0.3c-0.2-0.2-0.2-0.4-0.2-0.6V51.3z"/>
			<path class="st3" d="M47.7,71.4c0-0.1,0.1-0.2,0.4-0.3c0.3-0.1,0.6-0.1,0.8-0.1h1.9c0.2,0,0.5,0,0.7,0c0.3,0,0.5-0.1,0.7-0.2
				c0.2-0.1,0.4-0.2,0.5-0.4c0.1-0.2,0.2-0.4,0.2-0.7V47.5c0-0.2,0.1-0.4,0.2-0.6c0.2-0.2,0.3-0.2,0.5-0.2h3.5
				c0.2,0,0.4,0.1,0.5,0.2c0.1,0.2,0.2,0.3,0.2,0.6v22.8c0.2,0.3,0.6,0.5,1.1,0.5c0.5,0.1,1,0.1,1.3,0.1h1v4.9h-0.5
				c-1,0-2-0.1-3-0.3c-1-0.2-1.8-0.5-2.5-1.1c-0.4,0.3-0.8,0.5-1.2,0.6c-0.4,0.2-0.9,0.3-1.4,0.4c-0.5,0.1-0.9,0.2-1.4,0.2
				c-0.5,0-0.9,0.1-1.3,0.1H49c-0.3,0-0.6,0-0.8-0.1c-0.3-0.1-0.4-0.2-0.4-0.3V71.4z"/>
			<path class="st3" d="M60,71.4c0-0.1,0.1-0.2,0.4-0.3c0.3-0.1,0.6-0.1,0.8-0.1h5.3l-2.9-7.4c-0.1-0.1-0.1-0.3-0.2-0.5
				c0-0.2,0-0.4,0-0.5l0.1-2c0-0.2,0.1-0.4,0.2-0.5c0.1-0.2,0.3-0.3,0.5-0.5c0.5-0.4,1-0.7,1.7-1c0.7-0.3,1.4-0.6,2.1-0.8
				c0.7-0.2,1.5-0.4,2.3-0.5c0.8-0.1,1.6-0.2,2.3-0.2c1.3,0,2.5,0.1,3.6,0.4c1.1,0.3,2.1,0.7,2.9,1.3c0.8,0.6,1.5,1.4,2,2.4
				c0.5,1,0.7,2.2,0.7,3.6v0.8c0,0.5,0,1-0.1,1.6c-0.1,0.5-0.2,1.1-0.4,1.6c-0.2,0.5-0.4,1-0.6,1.4c-0.2,0.4-0.5,0.7-0.8,1h4.8v4.9
				H61.2c-0.3,0-0.6,0-0.8-0.1c-0.3-0.1-0.4-0.2-0.4-0.3V71.4z M73.7,71.1c0.6-0.1,1.1-0.3,1.5-0.7c0.4-0.3,0.8-0.7,1.1-1.2
				c0.3-0.5,0.5-1,0.7-1.6c0.1-0.6,0.2-1.2,0.2-1.9v-0.3c0-1.4-0.4-2.4-1.1-3.1c-0.8-0.7-1.9-1-3.3-1c-0.6,0-1.3,0.1-2.1,0.2
				c-0.8,0.1-1.6,0.4-2.3,0.9l3.4,8.6H73.7z M70.4,49.4c0-0.3,0.1-0.5,0.3-0.6c0.2-0.2,0.4-0.2,0.7-0.2h3c0.2,0,0.4,0.1,0.6,0.2
				c0.2,0.2,0.3,0.4,0.3,0.6v3c0,0.2-0.1,0.4-0.3,0.6c-0.2,0.2-0.4,0.2-0.6,0.2h-3c-0.3,0-0.5-0.1-0.7-0.2c-0.2-0.2-0.3-0.4-0.3-0.6
				V49.4z"/>
			<path class="st3" d="M83.3,71.4c0-0.1,0.1-0.2,0.4-0.3c0.3-0.1,0.6-0.1,0.8-0.1h1.2c0.5,0,1-0.1,1.4-0.2c0.5-0.1,0.7-0.5,0.7-1.1
				v-7.8c0-0.2,0.1-0.4,0.2-0.6c0.2-0.2,0.3-0.2,0.5-0.2H92c0.2,0,0.4,0.1,0.5,0.2c0.1,0.2,0.2,0.3,0.2,0.6v8.6
				c0.1,0.2,0.2,0.3,0.4,0.4c0.2,0.1,0.4,0.2,0.7,0.2c0.2,0.1,0.5,0.1,0.7,0.1c0.2,0,0.5,0,0.6,0h0.6c0.2,0,0.5,0,0.7,0
				c0.2,0,0.5-0.1,0.7-0.2c0.2-0.1,0.4-0.2,0.5-0.4c0.1-0.2,0.2-0.4,0.2-0.7v-9.4c0-0.2,0.1-0.4,0.2-0.5c0.2-0.1,0.3-0.2,0.5-0.2
				h3.2c0.2,0,0.4,0.1,0.5,0.2c0.2,0.1,0.2,0.3,0.2,0.5v9.9c0.2,0.3,0.5,0.5,1,0.6c0.5,0.1,1.1,0.1,1.6,0.1h0.9c0.6,0,1-0.1,1.2-0.2
				c0.2-0.1,0.3-0.5,0.3-1.1v-2.4v-2.7c0-0.9,0-1.9,0-2.9c0-1,0-1.9-0.1-2.8c0-0.2,0.1-0.3,0.2-0.5c0.1-0.2,0.3-0.2,0.5-0.2h3.3
				c0.3,0,0.5,0.1,0.6,0.2c0.1,0.1,0.2,0.3,0.2,0.5c0,0.8,0,1.6,0.1,2.4c0,0.7,0,1.4,0,2.1c0,0.7,0,1.3,0,2v2v2.2c0,0.7,0,1.5,0,2.3
				c0,0.8-0.1,1.6-0.1,2.3c0,0.2-0.1,0.4-0.2,0.6c-0.1,0.2-0.3,0.4-0.6,0.5c-0.5,0.2-1.2,0.3-2,0.3c-0.8,0.1-1.6,0.1-2.5,0.1h-0.5
				c-0.9,0-1.9-0.1-2.9-0.2c-1-0.1-1.9-0.5-2.7-1c-0.6,0.5-1.3,0.8-2.1,1c-0.8,0.2-1.7,0.3-2.6,0.3h-0.5c-0.9,0-1.8-0.1-2.6-0.3
				c-0.8-0.2-1.6-0.5-2.3-1c-0.7,0.5-1.5,0.9-2.4,1c-0.9,0.2-1.8,0.3-2.7,0.3h-1c-0.3,0-0.6,0-0.8-0.1c-0.3-0.1-0.4-0.2-0.4-0.3
				V71.4z M93.9,51.9c0-0.3,0.1-0.5,0.3-0.6c0.2-0.2,0.4-0.2,0.7-0.2h2.7c0.3,0,0.5,0.1,0.7,0.2c0.2,0.2,0.3,0.4,0.3,0.6v2.8
				c0,0.2-0.1,0.4-0.3,0.6c-0.2,0.2-0.4,0.2-0.7,0.2h-2.7c-0.3,0-0.5-0.1-0.7-0.2c-0.2-0.2-0.3-0.3-0.3-0.6V51.9z M97.7,46.4
				c0-0.2,0.1-0.4,0.3-0.6c0.2-0.2,0.4-0.3,0.6-0.3h2.5c0.3,0,0.5,0.1,0.7,0.3c0.2,0.2,0.3,0.4,0.3,0.6v2.3c0,0.2-0.1,0.4-0.3,0.6
				c-0.2,0.2-0.4,0.2-0.7,0.2h-2.5c-0.2,0-0.4-0.1-0.6-0.2c-0.2-0.2-0.3-0.3-0.3-0.6V46.4z M101,51.9c0-0.3,0.1-0.5,0.3-0.6
				c0.2-0.2,0.4-0.2,0.6-0.2h2.7c0.3,0,0.5,0.1,0.6,0.2c0.2,0.2,0.3,0.4,0.3,0.6v2.8c0,0.2-0.1,0.4-0.3,0.6
				c-0.2,0.2-0.4,0.2-0.6,0.2H102c-0.2,0-0.4-0.1-0.6-0.2c-0.2-0.2-0.3-0.3-0.3-0.6V51.9z"/>
		</g>
	</g>
</g>
</svg>
