<?xml version="1.0" encoding="utf-8"?>
<!-- Generator: Adobe Illustrator 23.1.1, SVG Export Plug-In . SVG Version: 6.00 Build 0)  -->
<svg version="1.1" id="Layer_1" xmlns="http://www.w3.org/2000/svg" xmlns:xlink="http://www.w3.org/1999/xlink" x="0px" y="0px"
	 viewBox="0 0 31.6 84.9" style="enable-background:new 0 0 31.6 84.9;" xml:space="preserve">
<style type="text/css">
	.st0{fill:#12406A;}
</style>
<path class="st0" d="M24.1,17.4l-0.4,0c1.7-1.9,2.7-4.4,2.7-7C26.3,4.7,21.6,0,15.9,0C10.2,0,5.5,4.7,5.5,10.4c0,2.6,1,5.1,2.7,7
	l-0.5,0C3.2,17.6-0.2,21.5,0,26l1.1,18.9c0.2,3,2.2,5.4,5.1,6.2L8,78.6c0.2,4.4,3.2,6.3,5.9,6.3h3.8c2.7,0,5.7-2,5.9-6.3l1.8-27.6
	c2.8-0.8,4.8-3.2,5.1-6.2l1.1-18.9C31.8,21.5,28.4,17.6,24.1,17.4z M10,21.8l11.9,0l2.1,0.1c1.8,0.1,3.3,1.8,3.2,3.8l-1.1,18.9
	c-0.1,1.3-1.1,2.3-2.4,2.3h-0.3c-1.2,0-2.2,1-2.2,2l-2,29.5c0,0.6-0.2,2.2-1.4,2.2H14c-1.2,0-1.4-1.5-1.4-2.2l-2-29.3
	c0-1.1-1-2.1-2.2-2.1H8.1c-1.3,0-2.3-1-2.4-2.3L4.6,25.8c0-1,0.3-2,0.9-2.7c0.6-0.7,1.5-1.1,2.5-1.2L10,21.8z M15.8,16.4
	c-3.3,0-6-2.7-6-6c0-3.3,2.7-6,6-6c3.3,0,6,2.7,6,6S19.1,16.4,15.8,16.4z"/>
</svg>
