<?xml version="1.0" encoding="utf-8"?>
<!-- Generator: Adobe Illustrator 23.1.1, SVG Export Plug-In . SVG Version: 6.00 Build 0)  -->
<svg version="1.1" id="Layer_1" xmlns="http://www.w3.org/2000/svg" xmlns:xlink="http://www.w3.org/1999/xlink" x="0px" y="0px"
	 viewBox="0 0 124.7 124.7" style="enable-background:new 0 0 124.7 124.7;" xml:space="preserve">
<style type="text/css">
	.st0{fill:#12406A;}
</style>
<g>
	<path class="st0" d="M60.9,66c18.2,0,33-14.8,33-33c0-18.2-14.8-33-33-33s-33,14.8-33,33C27.9,51.2,42.7,66,60.9,66z M60.9,10.2
		c12.6,0,22.8,10.2,22.8,22.8c0,12.6-10.2,22.8-22.8,22.8c-12.6,0-22.8-10.2-22.8-22.8C38.1,20.4,48.3,10.2,60.9,10.2z"/>
	<path class="st0" d="M110.9,78.9c-6.7-8.1-16.8-12.8-27.6-12.8c-4,0-8,0.6-12,1.9c-3.4,1.1-6.9,1.7-10.5,1.7
		c-3.6,0-7.1-0.6-10.5-1.7c-4-1.3-8-1.9-12.1-1.9c-10.8,0-20.8,4.7-27.4,12.8C3.9,87.3,0,98.1,0,109.1c0,8.5,6.9,15.4,15.4,15.4
		h90.9c8.5,0,15.4-6.9,15.4-15.4C121.7,98.1,117.9,87.3,110.9,78.9z M38.1,76.3c2.9,0,5.8,0.5,8.9,1.4c4.4,1.5,9,2.2,13.7,2.2
		c4.7,0,9.3-0.7,13.7-2.2c2.9-1,5.9-1.4,8.9-1.4c7.7,0,14.9,3.3,19.6,9.1c5.6,6.6,8.7,15.1,8.7,23.8c0,2.9-2.3,5.2-5.2,5.2H15.4
		c-2.9,0-5.2-2.3-5.2-5.2c0-8.6,3-17,8.4-23.8C23.3,79.6,30.5,76.3,38.1,76.3z"/>
</g>
</svg>
