<?xml version="1.0" encoding="utf-8"?>
<!-- Generator: Adobe Illustrator 23.1.1, SVG Export Plug-In . SVG Version: 6.00 Build 0)  -->
<svg version="1.1" id="Layer_1" xmlns="http://www.w3.org/2000/svg" xmlns:xlink="http://www.w3.org/1999/xlink" x="0px" y="0px"
	 viewBox="0 0 113.4 113.4" style="enable-background:new 0 0 113.4 113.4;" xml:space="preserve">
<style type="text/css">
	.st0{fill:#12406A;}
</style>
<path class="st0" d="M112.3,58l1.1-2.1l-1.1-2.1c-10.1-19.4-31.9-32-55.6-32c-8.5,0-16.7,1.6-24.3,4.6L7,0.9c-1.2-1.2-3.1-1.2-4.3,0
	C1.4,2.1,1.4,4,2.6,5.2L26.5,29C15.6,34.6,6.6,43.2,1.1,53.8L0,55.9L1.1,58C11.2,77.4,33,90,56.7,90c9,0,17.7-1.8,25.6-5.1
	l23.7,23.7c0.6,0.6,1.4,0.9,2.2,0.9c0.8,0,1.6-0.3,2.2-0.9c1.2-1.2,1.2-3.1,0-4.3L88.1,82.1C98.4,76.5,107,68.2,112.3,58z
	 M56.7,80.8c-19.4,0-37.3-9.7-46.3-24.9c5.2-8.7,13.3-15.7,22.9-20l8.9,8.9c-2.4,3.1-3.8,6.9-3.8,11.1c0,10.1,8.2,18.2,18.2,18.2
	c4.2,0,8-1.4,11.1-3.8l7.4,7.4C69.3,79.7,63.1,80.8,56.7,80.8z M56.7,64.9c-5,0-9.1-4.1-9.1-9.1c0-5,4.1-9.1,9.1-9.1
	s9.1,4.1,9.1,9.1C65.7,60.9,61.7,64.9,56.7,64.9z M81.3,75.3l-9.4-9.4c1.9-2.9,3-6.3,3-10c0-10.1-8.2-18.2-18.2-18.2
	c-3.7,0-7.1,1.1-10,3l-7.1-7.1c5.4-1.7,11.2-2.6,17.1-2.6c19.4,0,37.3,9.7,46.3,24.9C98,64.2,90.4,70.9,81.3,75.3z"/>
</svg>
