<?xml version="1.0" encoding="utf-8"?>
<!-- Generator: Adobe Illustrator 21.0.0, SVG Export Plug-In . SVG Version: 6.00 Build 0)  -->
<svg version="1.1" id="Layer_1" xmlns="http://www.w3.org/2000/svg" xmlns:xlink="http://www.w3.org/1999/xlink" x="0px" y="0px"
	 viewBox="0 0 283.5 283.5" style="enable-background:new 0 0 283.5 283.5;" xml:space="preserve">
<style type="text/css">
	.st0{opacity:0.3;fill:#EC5857;}
	.st1{fill:#EC5857;}
</style>
<circle class="st0" cx="141.7" cy="141.7" r="139.6"/>
<path class="st1" d="M78,169.2c0.2,0.2,0.4,0.3,0.7,0.6c0.4,0.3,0.8,0.6,1.2,0.8c0.3,0.2,0.6,0.4,1.1,0.7l0.5,0.2
	c0.3,0.2,0.7,0.3,0.9,0.4c0.7,0.3,1.4,0.6,2.1,0.8c2.1,0.7,4.1,1.1,6.4,1.4l0.6,0.1l0.7,0c0.6,0,1.1-0.1,1.8-0.1
	c0,0,23.8-1.3,26.8-1.4c-1.2,4.2-2.7,9.2-4.2,13.9c-2.5,7.9-3.3,14.4-2.5,20.9c1,8.9,6.2,17.1,13.9,22c4.5,2.8,9.5,4.3,14.5,4.3
	c0.4,0,0.8,0,1.3,0c7.1-0.4,12-5,12.7-12c0.4-4.5,0.9-8.6,1.5-12.4c1-6.2,2.6-11.3,5-15.6c1.3-2.4,2.9-4.5,4.7-6.4
	c4.1-4.3,8.5-9.1,13.4-14.8l2.1-2.4c2.5-2.9,5.1-5.9,7.9-8.6c0.4-0.4,0.8-0.7,1.2-1.2c0.9-0.8,1.9-1.5,3.1-2c0.6-0.3,1.9-0.6,3.1-1
	c5.3-1.5,15.3-4.3,15.9-14.1c0.1-2.1,0.3-4.2,0.3-6.4l0-1.2c0-1.8,0.1-3.5,0.1-5.3V67.6c0-4.2-3.4-7.6-7.6-7.6h-9.3
	c-0.1,0-0.2,0-0.4,0c-4.1-0.6-8-1.3-11.9-2l-2.5-0.4c-9.4-1.6-18.2-3-27.2-4.1c-3-0.4-6.1-0.8-9.1-1.1l-1-0.1
	c-6.8-0.9-13.8-1.8-20.8-2.4l-0.4,0l-0.3,0h0c-1.4,0-2.8,0.1-4.1,0.1c-1.8,0.1-3.6,0.2-6.1,0.5c-13.8,1.6-23.7,11.2-25.2,24.4
	c-0.3,2.3-0.3,4.7-0.1,7.5c0,0.6-0.1,1.1-0.5,1.5c-6.4,7.1-8.6,17.2-5.8,26.2c-2,3.1-4.7,7.8-4.9,13.6c-0.1,2.3,0.3,4.7,1,7.1
	c-5.3,4-8.8,9.9-9.7,16.6C67.8,155.6,71.3,164.2,78,169.2z M92.5,128.4c-0.2-0.5-0.5-1.1-0.6-1.6c-0.3-0.9-0.4-1.8-0.4-2.6
	c0.1-1.8,0.9-3.9,2.7-6.6l0.2-0.4c0.3-0.5,0.7-1,1-1.3l3.1-3.3l-1.8-4.2l-0.2-0.4c-2.7-5.6-1.2-12.5,3.8-16.4l1.1-0.9l0.4-0.8
	c0.3-0.5,0.6-1,0.8-1.6l0.4-1.2l-0.1-2.2c-0.3-2.8-0.7-5.7-0.4-8.4c0.8-6.9,5.5-11.4,13-12.3c1.5-0.2,3.4-0.3,5.2-0.4
	c1-0.1,2.1-0.1,3.2-0.1c0.1,0,0.2,0,0.3,0c6.6,0.6,13.3,1.5,19.8,2.3l1.3,0.2c3,0.4,6,0.8,9,1.1c8.8,1,17.5,2.5,26.8,4.1l2.1,0.4
	c4,0.7,8.1,1.4,12.4,2.1c0.4,0.1,0.7,0.1,1.1,0.1l4.1,0v56.4c0,1.6,0,3.3-0.1,5l0,1.2c-0.1,1.8-0.2,3.5-0.3,5.3
	c-1,0.8-4.4,1.7-5.8,2.1c-1.7,0.5-3.5,1-5.1,1.7c-2.3,1.1-4.4,2.4-6.3,4c-0.7,0.6-1.4,1.2-1.9,1.8c-3.1,3-5.9,6.2-8.7,9.4l-2.1,2.4
	c-4.9,5.6-9.2,10.3-13,14.4c-2.6,2.8-4.9,5.9-6.8,9.2c-3.2,5.8-5.4,12.4-6.6,20.2c-0.6,4-1.1,8.2-1.6,12.8l-0.2,0
	c-2.5,0-5-0.7-7.2-2.1c-4.1-2.6-6.9-7-7.5-11.9c-0.5-4.5,0.1-9.1,2-15.1c1.7-5.3,3.2-10.6,4.8-15.7l2-6.9c0.7-2.3,0.2-4.8-1.2-6.7
	c-1.4-1.9-3.7-3-6.1-3l-0.6,0c-5.9,0.3-11.8,0.6-17.7,0.9c0,0-18.6,1-19,1c-1.1-0.2-2.2-0.4-3.2-0.7c-0.2-0.1-0.4-0.2-0.6-0.2
	l-1.6-1c-2.7-2-4.3-5.7-3.9-8.9c0.5-3.3,2.3-6.2,5.1-8c0.8-0.5,1.5-1.1,2.3-1.7l0.6-0.4l2.2-1.1l0.9-2.9
	C94.3,133,94,130.7,92.5,128.4z"/>
</svg>
