<?xml version="1.0" encoding="utf-8"?>
<!-- Generator: Adobe Illustrator 23.1.1, SVG Export Plug-In . SVG Version: 6.00 Build 0)  -->
<svg version="1.1" id="Layer_1" xmlns="http://www.w3.org/2000/svg" xmlns:xlink="http://www.w3.org/1999/xlink" x="0px" y="0px"
	 viewBox="0 0 124.7 124.7" style="enable-background:new 0 0 124.7 124.7;" xml:space="preserve">
<style type="text/css">
	.st0{fill:#12406A;}
</style>
<path class="st0" d="M94.9,125.4c-0.6,0-1.1,0-1.7,0c-7.8-0.4-15.8-2.7-25-7.2C51.5,110,37,98.6,24.9,84.3
	C15.3,72.7,8.3,61.2,3.8,49c-3-8.1-4.1-14.5-3.7-20.9c0.4-5.4,2.5-10,6.3-13.6c1.8-1.8,3.7-3.6,5.7-5.6L12.9,8c1-1,1.9-1.9,2.9-2.9
	c3-2.9,6.5-4.5,10.2-4.5c3.7,0,7.2,1.5,10.2,4.5c1.6,1.5,3.1,3.1,4.6,4.6l3.1,3.1c2.5,2.4,5,4.9,7.4,7.4c6.2,6.3,6.2,14.4,0,20.7
	c-2.5,2.5-5.2,5.3-8,8c1.6,3.4,3.9,6.9,7,10.7C57.3,68.3,64.6,75,72.5,80c0.9,0.6,2,1.1,3.1,1.6c0.3,0.2,0.6,0.3,0.9,0.5
	c2.9-2.9,5.7-5.8,8.1-8.1c3-2.9,6.5-4.5,10.2-4.5c3.7,0,7.2,1.5,10.1,4.4L105,74l0.1,0.1l15.1,15.1c6.1,6.2,6.1,14.4,0,20.6
	c-0.9,0.9-1.8,1.8-2.8,2.7c-2,1.9-3.9,3.8-5.7,5.8C107.4,123,101.9,125.4,94.9,125.4z M26,10.5c-1.1,0-2.2,0.6-3.3,1.7
	c-1.1,1.1-2.3,2.3-3.4,3.4l-0.2,0.2c-1.8,1.8-3.8,3.9-5.9,5.8c-2,1.9-3.1,4.2-3.3,7.2c-0.4,4.9,0.6,10.1,3.1,16.8
	C17.1,56.7,23.5,67.3,32.5,78c11.1,13.3,24.6,23.8,40.1,31.4c8,3.9,14.7,5.9,21.2,6.2c0.3,0,0.7,0,1.1,0c4.2,0,7.1-1.2,9.6-3.9
	c2-2.2,4.2-4.3,6.1-6.2l0.2-0.2c0.9-0.8,1.7-1.7,2.6-2.5c2.3-2.4,2.3-4.4,0-6.8L98.1,80.9c-1.1-1.1-2.2-1.6-3.3-1.6
	c-1.1,0-2.2,0.6-3.3,1.6l-0.2,0.2c-3,3-6.1,6-9.1,9.1c-1.8,1.9-3.7,2.3-5,2.3c-1.2,0-2.3-0.3-3.5-0.9c-0.8-0.4-1.5-0.8-2.3-1.2
	c-1.5-0.7-2.8-1.4-4.1-2.2c-8.9-5.6-17-12.9-24.8-22.5c-4.3-5.2-7.2-9.9-9.2-14.7c-1.2-3-0.6-5.7,1.6-7.9c3.2-3.1,6.4-6.3,9.2-9.2
	c2.4-2.5,2.4-4.4,0-6.9c-2.4-2.5-4.9-4.9-7.3-7.3l-2.6-2.6c-1.7-1.7-3.4-3.4-5.1-5.1C28.1,11,27,10.5,26,10.5z"/>
</svg>
