<?xml version="1.0" encoding="utf-8"?>
<!-- Generator: Adobe Illustrator 23.1.1, SVG Export Plug-In . SVG Version: 6.00 Build 0)  -->
<svg version="1.1" id="Layer_1" xmlns="http://www.w3.org/2000/svg" xmlns:xlink="http://www.w3.org/1999/xlink" x="0px" y="0px"
	 viewBox="0 0 113.4 113.4" style="enable-background:new 0 0 113.4 113.4;" xml:space="preserve">
<style type="text/css">
	.st0{fill:#60A9DD;}
</style>
<g>
	<g>
		<path class="st0" d="M85.9,30.5H50.3c-3,0-5.5,2.5-5.5,5.5c0,3,2.5,5.5,5.5,5.5h35.5c3,0,5.5-2.5,5.5-5.5
			C91.3,33,88.9,30.5,85.9,30.5z"/>
		<path class="st0" d="M85.9,52H50.3c-3,0-5.5,2.5-5.5,5.5s2.5,5.5,5.5,5.5h35.5c3,0,5.5-2.5,5.5-5.5S88.9,52,85.9,52z"/>
		<path class="st0" d="M85.9,73.5H50.3c-3,0-5.5,2.5-5.5,5.5c0,3,2.5,5.5,5.5,5.5h35.5c3,0,5.5-2.5,5.5-5.5
			C91.3,75.9,88.9,73.5,85.9,73.5z"/>
		<path class="st0" d="M32.9,30.5h-5c-3,0-5.5,2.5-5.5,5.5c0,3,2.5,5.5,5.5,5.5h5c3,0,5.5-2.5,5.5-5.5C38.5,33,36,30.5,32.9,30.5z"
			/>
		<path class="st0" d="M32.9,52h-5c-3,0-5.5,2.5-5.5,5.5s2.5,5.5,5.5,5.5h5c3,0,5.5-2.5,5.5-5.5S36,52,32.9,52z"/>
		<path class="st0" d="M32.9,73.5h-5c-3,0-5.5,2.5-5.5,5.5c0,3,2.5,5.5,5.5,5.5h5c3,0,5.5-2.5,5.5-5.5C38.5,75.9,36,73.5,32.9,73.5z
			"/>
		<path class="st0" d="M97.1,1.7H16.6C8.3,1.7,1.5,8.5,1.5,16.8v80.6c0,8.3,6.8,15.1,15.1,15.1h80.6c8.3,0,15.1-6.8,15.1-15.1V16.8
			C112.2,8.5,105.4,1.7,97.1,1.7z M100.9,97.3c0,2.1-1.7,3.8-3.8,3.8H16.6c-2.1,0-3.8-1.7-3.8-3.8V16.8c0-2.1,1.7-3.8,3.8-3.8h80.6
			c2.1,0,3.8,1.7,3.8,3.8V97.3z"/>
	</g>
</g>
</svg>
