<?xml version="1.0" encoding="utf-8"?>
<!-- Generator: Adobe Illustrator 23.1.1, SVG Export Plug-In . SVG Version: 6.00 Build 0)  -->
<svg version="1.1" id="Layer_1" xmlns="http://www.w3.org/2000/svg" xmlns:xlink="http://www.w3.org/1999/xlink" x="0px" y="0px"
	 viewBox="0 0 113.4 113.4" style="enable-background:new 0 0 113.4 113.4;" xml:space="preserve">
<style type="text/css">
	.st0{fill:#12406A;}
</style>
<g>
	<path class="st0" d="M113.3,43.8c-0.3-1-1.3-1.7-2.4-1.7H71.3L59,4.4c-0.4-1.3-1.8-2-3.1-1.6c-0.8,0.2-1.3,0.8-1.6,1.6L42.1,42.1
		H2.5c-1.4,0-2.5,1.1-2.5,2.5c0,0.8,0.4,1.5,1,2l32.1,23.3l-12.2,37.7c-0.4,1.3,0.3,2.7,1.6,3.1c0.8,0.2,1.6,0.1,2.2-0.4L56.7,87
		l32.1,23.3c1.1,0.8,2.7,0.6,3.5-0.5c0.5-0.6,0.6-1.5,0.4-2.2L80.3,69.9l32.1-23.3C113.2,46,113.6,44.8,113.3,43.8z"/>
</g>
</svg>
