<?xml version="1.0" encoding="utf-8"?>
<!-- Generator: Adobe Illustrator 23.1.1, SVG Export Plug-In . SVG Version: 6.00 Build 0)  -->
<svg version="1.1" id="Layer_1" xmlns="http://www.w3.org/2000/svg" xmlns:xlink="http://www.w3.org/1999/xlink" x="0px" y="0px"
	 viewBox="0 0 79.4 79.4" style="enable-background:new 0 0 79.4 79.4;" xml:space="preserve">
<style type="text/css">
	.st0{fill:#12406A;}
	.st1{fill-rule:evenodd;clip-rule:evenodd;fill:#12406A;}
</style>
<g>
	<g>
		<g>
			<path class="st0" d="M79.1,14.6c-2.5,1.1-5.3,1.8-8,2.3c1.3-0.2,3.2-2.6,4-3.5c1.2-1.4,2.1-3.1,2.7-4.9c0.1-0.1,0.1-0.3,0-0.4
				c-0.2-0.1-0.3,0-0.4,0c-3,1.6-6.2,2.8-9.5,3.6c-0.3,0.1-0.5,0-0.7-0.2c-0.3-0.3-0.5-0.6-0.8-0.8c-1.4-1.2-2.9-2.1-4.6-2.8
				C59.4,7,57,6.6,54.6,6.8c-2.3,0.2-4.6,0.8-6.7,1.9c-2.1,1.1-3.9,2.6-5.4,4.4c-1.5,1.9-2.7,4.1-3.2,6.5c-0.6,2.3-0.5,4.5-0.2,6.8
				c0.1,0.4,0,0.4-0.3,0.4c-13.1-1.9-23.9-6.6-32.7-16.6c-0.4-0.4-0.6-0.4-0.9,0c-3.8,5.8-2,15,2.8,19.6c0.6,0.6,1.3,1.2,2,1.8
				c-0.3,0.1-3.5-0.3-6.3-1.8c-0.4-0.2-0.6-0.1-0.6,0.3c0,0.6,0,1.2,0.1,1.9C3.9,37.8,8,43.2,13.5,45.3c0.7,0.3,1.4,0.5,2.1,0.6
				c-1.3,0.3-2.6,0.5-6.2,0.2C9,46,8.8,46.3,9,46.7c2.7,7.4,8.6,9.6,13,10.9c0.6,0.1,1.2,0.1,1.8,0.2c0,0.1-0.1,0.1-0.1,0.1
				c-1.5,2.2-6.5,3.9-8.9,4.7c-4.3,1.5-8.9,2.2-13.5,1.7c-0.7-0.1-0.9-0.1-1.1,0c-0.2,0.1,0,0.3,0.2,0.5c0.9,0.6,1.9,1.1,2.8,1.7
				c2.9,1.5,5.9,2.7,9,3.6c16.2,4.5,34.4,1.2,46.6-10.9c9.5-9.5,12.9-22.6,12.9-35.7c0-0.5,0.6-0.8,1-1.1c2.5-1.9,4.5-4.1,6.3-6.6
				c0.4-0.6,0.4-1.1,0.4-1.3c0,0,0-0.1,0-0.1C79.4,14.3,79.4,14.4,79.1,14.6z"/>
		</g>
		<g>
			<path class="st1" d="M23.7,71.7C30.4,71.7,24,71.7,23.7,71.7C24.5,71.7,23.6,71.7,23.7,71.7z"/>
		</g>
		<g>
			<path class="st1" d="M23.7,71.7C23.6,71.7,22.3,71.7,23.7,71.7C23.7,71.7,23.4,71.7,23.7,71.7z"/>
		</g>
		<g>
			<path class="st1" d="M26.3,71.8C26.3,71.7,27.7,71.8,26.3,71.8C26.3,71.7,26.5,71.8,26.3,71.8z"/>
		</g>
		<g>
			<path class="st1" d="M54.4,6.8c-0.1,0.1-0.2,0.1-0.3,0C54.1,6.8,54.3,6.8,54.4,6.8z"/>
		</g>
	</g>
</g>
</svg>
