<?xml version="1.0" encoding="utf-8"?>
<!-- Generator: Adobe Illustrator 23.1.1, SVG Export Plug-In . SVG Version: 6.00 Build 0)  -->
<svg version="1.1" id="Layer_1" xmlns="http://www.w3.org/2000/svg" xmlns:xlink="http://www.w3.org/1999/xlink" x="0px" y="0px"
	 viewBox="0 0 113.4 113.4" style="enable-background:new 0 0 113.4 113.4;" xml:space="preserve">
<style type="text/css">
	.st0{fill-rule:evenodd;clip-rule:evenodd;fill:#60A9DD;}
</style>
<g>
	<g>
		<path class="st0" d="M86.2,44.6H32.1v-9.1c0-12.3,8.8-23,20.4-25c1.4-0.2,2.9-0.4,4.3-0.4c12,0,22.5,8.9,24.4,20.8
			c0.1,2.5,2.2,4.6,4.7,4.6c2.4,0,4.3-1.7,4.7-4l0.1,0v-0.7l0-0.2l0-0.1c0-0.3-0.1-0.7-0.2-1C87.9,13.1,73.4,0.8,56.9,0.8
			c-0.5,0-1.1,0-1.6,0C37,1.6,22.7,17,22.7,35.7v9.9c-4.6,1.9-7.6,6.4-7.6,11.4v44c0,6.8,5.5,12.3,12.3,12.3h58.8
			c6.8,0,12.3-5.5,12.3-12.3V57C98.6,50.2,93,44.6,86.2,44.6z M25,56.9c0-1.3,1.1-2.4,2.4-2.4h58.8c1.4,0,2.5,1.1,2.5,2.5v44
			c0,1.4-1.1,2.5-2.5,2.5H27.5c-1.4,0-2.5-1.1-2.5-2.5V56.9z"/>
		<path class="st0" d="M52.5,75.4l-2.4,14.4L50,90.4l0.4,0.4l0.4,0.5h11.5l0.6,0l0.4-0.4l0.4-0.5l-2.5-15c2.6-1.5,4.3-4.4,4.3-7.4
			c0-4.8-3.9-8.6-8.6-8.6c-4.7,0-8.6,3.8-8.6,8.6C48.2,71,49.9,73.8,52.5,75.4z"/>
	</g>
</g>
</svg>
