<?xml version="1.0" encoding="utf-8"?>
<!-- Generator: Adobe Illustrator 23.1.1, SVG Export Plug-In . SVG Version: 6.00 Build 0)  -->
<svg version="1.1" id="Layer_1" xmlns="http://www.w3.org/2000/svg" xmlns:xlink="http://www.w3.org/1999/xlink" x="0px" y="0px"
	 viewBox="0 0 79.4 79.4" style="enable-background:new 0 0 79.4 79.4;" xml:space="preserve">
<style type="text/css">
	.st0{fill:#12406A;}
</style>
<g>
	<path class="st0" d="M60.3,14.7c-2.6,0-4.7,2.1-4.7,4.7s2.1,4.7,4.7,4.7s4.7-2.1,4.7-4.7S62.9,14.7,60.3,14.7z M39.6,20.7
		C28.8,20.7,20,29.4,20,40.2s8.8,19.6,19.6,19.6S59.2,51,59.2,40.2S50.4,20.7,39.6,20.7z M39.6,52.8c-6.9,0-12.5-5.6-12.5-12.5
		s5.6-12.5,12.5-12.5s12.5,5.6,12.5,12.5S46.5,52.8,39.6,52.8z M79.1,24c0-13.2-10.7-23.9-23.9-23.9H23.7C10.5,0.1-0.1,10.8-0.1,24
		v31.5c0,13.2,10.7,23.9,23.9,23.9h31.5c13.2,0,23.9-10.7,23.9-23.9V24z M71.7,55.5c0,9.1-7.3,16.4-16.4,16.4H23.7
		c-9.1,0-16.4-7.3-16.4-16.4V24c0-9.1,7.3-16.4,16.4-16.4h31.5c9.1,0,16.4,7.3,16.4,16.4V55.5z"/>
</g>
</svg>
