<?xml version="1.0" encoding="utf-8"?>
<!-- Generator: Adobe Illustrator 23.1.1, SVG Export Plug-In . SVG Version: 6.00 Build 0)  -->
<svg version="1.1" id="Layer_1" xmlns="http://www.w3.org/2000/svg" xmlns:xlink="http://www.w3.org/1999/xlink" x="0px" y="0px"
	 viewBox="0 0 113.4 113.4" style="enable-background:new 0 0 113.4 113.4;" xml:space="preserve">
<style type="text/css">
	.st0{fill:#12406A;}
</style>
<g>
	<path class="st0" d="M94,79.2c-5.1-6.1-12.6-9.6-20.7-9.6c-3,0-6,0.5-9,1.4c-2.5,0.8-5.2,1.2-7.9,1.2c-2.7,0-5.3-0.4-7.9-1.2
		c-3-1-6-1.4-9-1.4c-8.1,0-15.6,3.5-20.5,9.6c-5.2,6.3-8.1,14.4-8.1,22.6c0,6.4,5.2,11.6,11.6,11.6h68.2c6.4,0,11.6-5.2,11.6-11.6
		C102.1,93.6,99.2,85.5,94,79.2z M64.4,78.9v7.6H48.6V79c2.5,0.6,5.2,0.9,7.8,0.9C59.1,79.9,61.8,79.6,64.4,78.9z M42.5,77.4v12.1
		c0,1.7,1.4,3,3,3h21.9c1.7,0,3-1.4,3-3V77.4c0.9-0.1,1.9-0.2,2.8-0.2c1,0,1.9,0.1,2.9,0.2v28.3H37.5V77.3c0.6-0.1,1.3-0.1,2-0.1
		C40.4,77.2,41.4,77.3,42.5,77.4z M18.5,101.8c0-6.4,2.2-12.8,6.3-17.8c1.8-2.2,4.1-3.9,6.6-5.1v26.8h-9
		C20.2,105.7,18.5,104,18.5,101.8z M90.6,105.7h-8.3V79.4c2.2,1.1,4.1,2.7,5.7,4.6c4.2,5,6.5,11.3,6.5,17.8
		C94.5,104,92.8,105.7,90.6,105.7z"/>
	<path class="st0" d="M58.9,22.5h-2.7l1.3-2.2c0.3-0.6,0.2-1.3-0.4-1.7c-0.6-0.3-1.3-0.2-1.7,0.4L53,23.1c-0.2,0.4-0.2,0.8,0,1.2
		c0.2,0.4,0.6,0.6,1.1,0.6h2.7l-1.3,2.2c-0.3,0.6-0.2,1.3,0.4,1.7c0.2,0.1,0.4,0.2,0.6,0.2c0.4,0,0.8-0.2,1-0.6l2.4-4.1
		c0.2-0.4,0.2-0.8,0-1.2C59.8,22.8,59.4,22.5,58.9,22.5z"/>
	<path class="st0" d="M32.1,46.1c0.4,5.9,2.9,11.4,7.1,15.6c4.6,4.6,10.8,7.2,17.3,7.2c6.5,0,12.7-2.5,17.3-7.2
		c4.2-4.2,6.7-9.7,7.1-15.6c1.9-0.8,3.3-2.7,3.3-4.9V38c0-1.4-0.6-2.8-1.6-3.8V30c0-11.2-7.2-21.1-17.6-24.7c-0.2-1.1-0.7-2.2-1.5-3
		c-1-1-2.3-1.5-3.7-1.5h-6.4c-1.4,0-2.7,0.6-3.7,1.5c-0.8,0.8-1.4,1.9-1.5,3.1C37.6,8.9,30.4,18.9,30.4,30v4.2c-1,1-1.6,2.3-1.6,3.8
		v3.2C28.8,43.4,30.2,45.3,32.1,46.1z M68.6,56.5c-3.2,3.2-7.5,5-12.1,5c-4.6,0-8.9-1.8-12.1-5c-2.7-2.7-4.4-6.2-4.9-10h34
		C73,50.3,71.3,53.8,68.6,56.5z M37.8,30c0-8.7,6.2-16.4,14.7-18.3c1.7-0.4,2.9-1.9,2.9-3.6v0h2.2v0c0,1.7,1.2,3.2,2.9,3.6
		C69,13.6,75.2,21.3,75.2,30v2.7H37.8V30z M34.1,36.9h44.8v5.5H34.1L34.1,36.9z"/>
</g>
</svg>
